<?xml version="1.0" encoding="UTF-8" standalone="no"?>
<!-- Created with Inkscape (http://www.inkscape.org/) -->

<svg
   width="150.00014mm"
   height="129.90422mm"
   viewBox="0 0 150.00014 129.90422"
   version="1.1"
   id="svg7714"
   inkscape:version="1.1.1 (3bf5ae0d25, 2021-09-20)"
   sodipodi:docname="hidden.svg"
   xmlns:inkscape="http://www.inkscape.org/namespaces/inkscape"
   xmlns:sodipodi="http://sodipodi.sourceforge.net/DTD/sodipodi-0.dtd"
   xmlns="http://www.w3.org/2000/svg"
   xmlns:svg="http://www.w3.org/2000/svg">
  <sodipodi:namedview
     id="namedview7716"
     pagecolor="#ffffff"
     bordercolor="#666666"
     borderopacity="1.0"
     inkscape:pageshadow="2"
     inkscape:pageopacity="0.0"
     inkscape:pagecheckerboard="0"
     inkscape:document-units="mm"
     showgrid="false"
     inkscape:zoom="0.77771465"
     inkscape:cx="-56.576021"
     inkscape:cy="655.76751"
     inkscape:window-width="3840"
     inkscape:window-height="2066"
     inkscape:window-x="-11"
     inkscape:window-y="-11"
     inkscape:window-maximized="1"
     inkscape:current-layer="layer1"
     fit-margin-top="0"
     fit-margin-left="0"
     fit-margin-right="0"
     fit-margin-bottom="0" />
  <defs
     id="defs7711">
    <filter
       height="1.1768695"
       y="-0.088434734"
       width="1.2042313"
       x="-0.10211563"
       id="filter5401-6-6"
       style="color-interpolation-filters:sRGB"
       inkscape:collect="always">
      <feGaussianBlur
         id="feGaussianBlur5403-6-5"
         stdDeviation="4.5338123"
         inkscape:collect="always" />
    </filter>
  </defs>
  <g
     inkscape:label="Calque 1"
     inkscape:groupmode="layer"
     id="layer1"
     transform="translate(28.36111,25.09345)">
    <g
       id="g7546"
       transform="translate(-1185.4317,742.70423)">
      <path
         inkscape:transform-center-y="-1.6113797e-05"
         inkscape:transform-center-x="-1.3655894e-05"
         inkscape:randomized="0"
         inkscape:rounded="0"
         inkscape:flatsided="true"
         sodipodi:arg2="1.0471976"
         sodipodi:arg1="0.52359878"
         sodipodi:r2="64.951912"
         sodipodi:r1="75"
         sodipodi:cy="447.92621"
         sodipodi:cx="406.3533"
         sodipodi:sides="6"
         id="path7506"
         style="display:inline;opacity:1;fill:#ce743a;fill-opacity:1;stroke:none;stroke-width:1.51777;stroke-linecap:round;stroke-linejoin:miter;stroke-miterlimit:4;stroke-dasharray:none;stroke-opacity:1;paint-order:markers stroke fill"
         sodipodi:type="star"
         transform="rotate(90,1394.5979,285.39902)"
         d="m 471.30521,485.42621 -64.95191,37.5 -64.9519,-37.5 0,-75 64.9519,-37.5 64.95191,37.5 z" />
      <path
         d="m 406.35331,372.92619 -64.95211,37.50004 v 75.00007 l 64.95211,37.50003 64.95211,-37.50003 v -75.00007 z m 0,10.77403 54.95218,31.72622 v 63.45348 l -54.95218,31.72624 -54.95168,-31.72624 v -63.45348 z"
         inkscape:transform-center-y="-7.7154899e-06"
         inkscape:transform-center-x="-8.5550826e-06"
         style="display:inline;opacity:1;fill:#ce743a;fill-opacity:1;stroke:none;stroke-width:1.2841;stroke-linecap:round;stroke-linejoin:miter;stroke-miterlimit:4;stroke-dasharray:none;stroke-opacity:1;paint-order:markers stroke fill"
         id="path7508"
         transform="rotate(90,1394.5979,285.39902)" />
      <path
         sodipodi:type="star"
         style="display:inline;opacity:1;fill:#8f4a1d;fill-opacity:1;stroke:none;stroke-width:1.24499;stroke-linecap:round;stroke-linejoin:miter;stroke-miterlimit:4;stroke-dasharray:none;stroke-opacity:1;paint-order:markers stroke fill;filter:url(#filter5401-6-6)"
         id="path7510"
         sodipodi:sides="6"
         sodipodi:cx="406.3533"
         sodipodi:cy="447.92621"
         sodipodi:r1="61.520794"
         sodipodi:r2="53.278576"
         sodipodi:arg1="0.52359878"
         sodipodi:arg2="1.0471976"
         inkscape:flatsided="true"
         inkscape:rounded="0"
         inkscape:randomized="0"
         inkscape:transform-center-x="-1.1201619e-05"
         inkscape:transform-center-y="-1.3217782e-05"
         transform="rotate(90,1394.5979,285.39902)"
         d="m 459.63187,478.68661 -53.27857,30.76039 -53.27857,-30.76039 0,-61.5208 53.27857,-30.7604 53.27857,30.7604 z" />
      <g
         id="g7532"
         transform="matrix(0,0.85748929,-0.98413178,0,1466.391,-776.00126)"
         style="display:inline">
        <path
           id="path7512"
           d="m 43.369613,191.90504 c 2.139728,-6.98735 23.804459,-10.70257 26.288068,-8.862 2.483612,1.84057 7.565464,13.29301 4.279456,16.08795 -3.286011,2.79494 -16.69751,12.74765 -19.716054,15.44034 -3.018541,2.69269 -22.92564,9.61187 -26.823,10.15722 -3.89736,0.54536 -7.871138,-10.66849 -5.578573,-14.4178 2.292564,-3.74931 17.958419,-14.31555 21.550103,-18.40571 z"
           style="fill:#9c9ca8;fill-opacity:1;stroke:none;stroke-width:0.264583px;stroke-linecap:butt;stroke-linejoin:miter;stroke-opacity:1" />
        <path
           id="path7514"
           d="m 36.825656,237.69249 c 2.942124,-5.79438 14.213898,-16.73555 21.320847,-21.60966 7.106949,-4.8741 71.719047,29.17645 77.182997,33.70971 5.46394,4.53326 15.09271,18.50796 10.66042,22.59813 -4.43229,4.09014 -34.61772,19.80316 -40.15808,20.55302 -5.54037,0.74988 -14.519576,-0.13634 -21.015173,-1.29522 -6.4956,-1.15887 -22.237874,-0.54533 -26.937631,-1.29521 C 53.179279,289.6034 37.551633,283.40001 34.07458,278.62814 30.597523,273.8563 0.10641919,268.26642 36.825656,237.69249 Z"
           style="fill:#9c9ca8;fill-opacity:1;stroke:none;stroke-width:0.264583px;stroke-linecap:butt;stroke-linejoin:miter;stroke-opacity:1" />
        <path
           style="fill:#cfcfd4;fill-opacity:1;stroke:none;stroke-width:0.264583px;stroke-linecap:butt;stroke-linejoin:miter;stroke-opacity:1"
           d="m 29.445868,203.69612 c 0,0 -5.369541,3.98385 -6.062385,5.02312 -0.692844,1.03926 -1.558899,1.5589 -1.73211,3.46422 -0.173211,1.90532 0.173211,4.15706 0.519633,5.71596 0.346422,1.5589 2.251743,5.36954 3.291009,6.06239 1.039265,0.69284 3.117797,0.34642 4.157065,0.17321 1.039265,-0.17321 5.889172,-1.73211 7.101649,-2.07854 1.212477,-0.34642 4.330274,-1.90532 6.062385,-2.42495 1.732111,-0.51963 3.81064,-1.38569 5.542751,-2.07853 1.73211,-0.69285 4.503486,-1.73211 5.542751,-2.94459 1.039267,-1.21247 2.598166,-3.11779 0.173212,-2.42495 -2.424954,0.69284 -4.503486,1.5589 -5.715963,2.07853 -1.212477,0.51963 -4.157065,1.21248 -5.715963,1.73211 -1.558899,0.51963 -10.046237,2.77138 -10.73908,3.1178 -0.692844,0.34642 -5.02312,1.03926 -5.369542,-0.17321 -0.346421,-1.21248 -1.558898,-4.6767 -1.212476,-5.71597 0.346422,-1.03926 -0.173211,-1.90532 1.385688,-3.46422 1.558899,-1.55889 4.676696,-3.46422 5.715963,-4.50348 1.039265,-1.03927 -0.346421,-2.94459 -2.944587,-1.5589 z"
           id="path7516" />
        <path
           id="path7518"
           d="m 88.168944,207.2202 c 0.917025,-6.64651 -12.303426,-11.00934 -10.278329,-15.88345 2.025099,-4.8741 11.577449,-12.47498 16.009738,-12.67948 4.432291,-0.20451 27.854657,14.8609 33.012917,16.36062 5.15828,1.49973 17.0414,4.26058 18.49336,8.99835 1.45195,4.73776 10.01086,33.33478 4.39408,33.57337 -5.61679,0.23859 -29.2302,-2.6586 -35.42012,-6.51017 -6.18992,-3.85156 -24.377594,-8.75975 -26.020598,-12.91808 -1.643005,-4.15832 0.267464,-7.39636 -0.191048,-10.94116 z"
           style="fill:#9c9ca8;fill-opacity:1;stroke:none;stroke-width:0.264583px;stroke-linecap:butt;stroke-linejoin:miter;stroke-opacity:1" />
        <path
           style="fill:#cfcfd4;fill-opacity:1;stroke:none;stroke-width:0.264583px;stroke-linecap:butt;stroke-linejoin:miter;stroke-opacity:1"
           d="m 88.337603,207.50676 c 0,1.21248 0.173212,4.50349 0,6.40881 -0.173212,1.90532 -0.692843,2.42495 0,3.63743 0.692843,1.21248 2.424954,2.59816 3.637431,2.94459 1.212477,0.34642 10.046236,4.33027 10.739076,4.67669 0.69285,0.34642 10.73909,4.15707 11.95156,4.84991 1.21248,0.69284 2.42496,1.90532 9.18019,3.29101 6.75522,1.38569 10.21944,2.07853 12.81761,2.42495 2.59816,0.34643 7.27486,1.38569 9.69981,1.21248 2.42496,-0.17321 3.63743,1.21248 4.15707,-0.69284 0.51963,-1.90533 1.03926,-0.86606 0.17321,-3.29101 -0.86606,-2.42496 -1.90532,0 -2.59817,1.03926 -0.69284,1.03927 -3.11779,1.5589 -5.71596,0.86606 -2.59816,-0.69285 -4.84991,-1.21248 -10.21945,-2.25175 -5.36954,-1.03926 -5.88917,-0.51963 -9.87302,-2.25174 -3.98386,-1.73211 -8.31413,-2.07853 -11.08551,-3.98385 -2.77137,-1.90532 -6.92844,-3.81064 -9.00697,-4.6767 -2.07853,-0.86605 -4.676695,-1.38568 -6.755227,-2.77137 -2.07853,-1.38569 -2.771376,0 -2.944585,-3.63743 -0.173212,-3.63743 -0.519634,-3.98386 -0.866056,-5.54276 -0.346421,-1.55889 -2.251744,-5.02311 -3.291009,-2.25174 z"
           id="path7520" />
        <path
           style="fill:#cfcfd4;fill-opacity:1;stroke:none;stroke-width:0.264583px;stroke-linecap:butt;stroke-linejoin:miter;stroke-opacity:1"
           d="m 83.141274,186.20181 c -1.558899,0 -2.251744,1.03927 -2.771376,2.07853 -0.519633,1.03927 -1.212476,1.5589 -1.73211,2.77138 -0.519634,1.21247 -0.519634,1.73211 0.173212,2.42495 0.692843,0.69285 1.212477,2.25175 3.117797,3.81064 1.90532,1.5589 2.771375,1.73211 3.464219,2.94459 0.692845,1.21248 1.905322,1.38569 2.251744,0.51963 0.346422,-0.86605 1.212477,-1.38568 -0.866055,-2.77137 -2.078533,-1.38569 -2.078533,-0.69285 -2.771376,-1.90532 -0.692846,-1.21248 -2.078532,-3.1178 -2.078532,-3.98386 0,-0.86605 3.464219,-3.98385 2.944588,-4.67669 -0.519634,-0.69285 -1.732111,-1.21248 -1.732111,-1.21248 z"
           id="path7522" />
        <path
           style="fill:#cfcfd4;fill-opacity:1;stroke:none;stroke-width:0.264583px;stroke-linecap:butt;stroke-linejoin:miter;stroke-opacity:1"
           d="m 33.602932,240.59006 c -1.212477,1.03927 -4.157064,3.63743 -4.330276,4.33028 -0.17321,0.69284 -3.464219,5.02311 -4.676696,6.06238 -1.212477,1.03927 -5.023118,6.06238 -5.023118,7.10165 0,1.03926 -0.866056,7.96771 0,9.18019 0.866054,1.21246 4.157063,5.02312 6.582017,5.88915 2.424953,0.86606 3.63743,2.25177 5.023119,2.9446 1.385687,0.69284 4.157062,3.29102 5.542751,4.6767 1.385689,1.38568 3.291009,2.77138 5.542751,3.98386 2.251745,1.21248 6.235597,2.77138 8.83376,3.81063 2.598166,1.03926 9.526606,1.73212 10.739083,1.90532 1.212477,0.17322 4.330274,0.51964 8.487338,0.51964 4.157062,0 5.19633,-0.51964 9.873025,0.1732 4.676699,0.69286 8.140917,1.73212 10.392659,1.73212 2.251744,0 6.582018,0.51964 9.006972,0.86606 2.424953,0.34642 4.849903,1.03926 9.353393,-1.03928 4.50349,-2.07852 7.10165,-3.63742 9.35339,-4.6767 2.25175,-1.03926 3.98386,-2.77138 2.25175,-3.46422 -1.73211,-0.69283 -6.06239,2.07854 -6.92844,2.59819 -0.86606,0.51961 -7.96771,1.03925 -9.18019,1.03925 -1.21247,0 -9.006967,-0.51964 -10.912288,-0.51964 -1.90532,0 -7.794495,0.17322 -9.526603,0.17322 -1.73211,0 -8.66055,-0.51964 -10.912292,-1.21248 -2.251744,-0.69283 -6.582018,-1.3857 -8.83376,-1.3857 -2.251744,0 -5.196329,-0.69284 -7.794495,-1.73209 -2.598166,-1.03926 -8.314127,-2.77138 -10.219449,-3.29102 -1.905321,-0.51962 -2.598164,0.86606 -4.503487,-2.07852 -1.90532,-2.9446 -5.54275,-7.10165 -6.928437,-7.62129 -1.385689,-0.51964 -2.078532,-0.86606 -3.983852,-1.5589 -1.905323,-0.69284 -3.1178,-0.69284 -4.503487,-3.63744 -1.385688,-2.94458 -2.944587,-5.54274 -2.078532,-6.75522 0.866055,-1.21247 1.905321,-3.63743 3.983853,-5.19633 2.078532,-1.55889 4.503486,-2.77137 5.889172,-5.71596 1.385689,-2.94459 4.157065,-8.48734 -0.519631,-7.10165 z"
           id="path7524" />
        <path
           style="opacity:0.5;fill:none;stroke:#000000;stroke-width:4;stroke-linecap:butt;stroke-linejoin:miter;stroke-miterlimit:4;stroke-dasharray:none;stroke-opacity:1"
           d="m 43.369613,191.90504 c 2.139728,-6.98735 23.804459,-10.70257 26.288068,-8.862 2.483612,1.84057 7.565464,13.29301 4.279456,16.08795 -3.286011,2.79494 -16.69751,12.74765 -19.716054,15.44034 -3.018541,2.69269 -22.92564,9.61187 -26.823,10.15722 -3.89736,0.54536 -7.871138,-10.66849 -5.578573,-14.4178 2.292564,-3.74931 17.958419,-14.31555 21.550103,-18.40571 z"
           id="path7526" />
        <path
           style="opacity:0.5;fill:none;stroke:#000000;stroke-width:4;stroke-linecap:butt;stroke-linejoin:miter;stroke-miterlimit:4;stroke-dasharray:none;stroke-opacity:1"
           d="m 36.825656,237.69249 c 2.942124,-5.79438 14.213898,-16.73555 21.320847,-21.60966 7.106949,-4.8741 71.719047,29.17645 77.182997,33.70971 5.46394,4.53326 15.09271,18.50796 10.66042,22.59813 -4.43229,4.09014 -34.61772,19.80316 -40.15808,20.55302 -5.54037,0.74988 -14.519576,-0.13634 -21.015173,-1.29522 -6.4956,-1.15887 -22.237874,-0.54533 -26.937631,-1.29521 C 53.179279,289.6034 37.551633,283.40001 34.07458,278.62814 30.597523,273.8563 0.10641919,268.26642 36.825656,237.69249 Z"
           id="path7528" />
        <path
           style="opacity:0.5;fill:none;stroke:#000000;stroke-width:4;stroke-linecap:butt;stroke-linejoin:miter;stroke-miterlimit:4;stroke-dasharray:none;stroke-opacity:1"
           d="m 88.168944,207.2202 c 0.917025,-6.64651 -12.303426,-11.00934 -10.278329,-15.88345 2.025099,-4.8741 11.577449,-12.47498 16.009738,-12.67948 4.432291,-0.20451 27.854657,14.8609 33.012917,16.36062 5.15828,1.49973 17.0414,4.26058 18.49336,8.99835 1.45195,4.73776 10.01086,33.33478 4.39408,33.57337 -5.61679,0.23859 -29.2302,-2.6586 -35.42012,-6.51017 -6.18992,-3.85156 -24.377594,-8.75975 -26.020598,-12.91808 -1.643005,-4.15832 0.267464,-7.39636 -0.191048,-10.94116 z"
           id="path7530" />
      </g>
      <path
         inkscape:transform-center-y="-1.1415755e-05"
         inkscape:transform-center-x="-1.3618847e-05"
         inkscape:randomized="0"
         inkscape:rounded="0"
         inkscape:flatsided="true"
         sodipodi:arg2="1.0471976"
         sodipodi:arg1="0.52359878"
         sodipodi:r2="64.825691"
         sodipodi:r1="74.854263"
         sodipodi:cy="229.26865"
         sodipodi:cx="117.73786"
         sodipodi:sides="6"
         id="path7534"
         style="display:inline;opacity:0.369281;fill:none;fill-opacity:1;stroke:#000000;stroke-width:0.252429;stroke-linecap:round;stroke-linejoin:miter;stroke-miterlimit:4;stroke-dasharray:none;stroke-opacity:0.3;paint-order:markers stroke fill"
         sodipodi:type="star"
         transform="rotate(90,1140.9614,320.37795)"
         d="m 182.56356,266.69578 -64.8257,37.42713 -64.825692,-37.42713 0,-74.85427 64.825692,-37.42713 64.8257,37.42713 z" />
      <g
         style="display:inline"
         transform="rotate(180,817.62611,-149.7282)"
         id="g7544">
        <rect
           style="display:inline;fill:#ffffff;fill-opacity:1;fill-rule:evenodd;stroke:none;stroke-width:9.84872;stroke-linecap:square;stroke-linejoin:miter;stroke-miterlimit:4;stroke-dasharray:none;stroke-opacity:1"
           id="rect7536"
           width="70"
           height="70"
           x="368.3273"
           y="368.38919" />
        <g
           style="display:inline;opacity:1"
           transform="matrix(0.71428571,0,0,0.71428571,379.40724,153.49363)"
           id="g7542">
          <rect
             style="opacity:1;fill:#000000;fill-opacity:1;stroke:none;stroke-width:0.263348;stroke-linecap:butt;stroke-linejoin:miter;stroke-miterlimit:4;stroke-dasharray:0.263348, 0.526696;stroke-dashoffset:0;stroke-opacity:1;paint-order:markers stroke fill"
             id="rect7538"
             width="70"
             height="70"
             x="-1.511905"
             y="314.85376" />
          <rect
             y="337.89563"
             x="10.15465"
             height="23.331253"
             width="23.33412"
             id="rect7540"
             style="opacity:1;fill:#ffffff;fill-opacity:1;stroke:none;stroke-width:0.714535;stroke-linecap:butt;stroke-linejoin:miter;stroke-miterlimit:4;stroke-dasharray:0.714535, 1.42907;stroke-dashoffset:0;stroke-opacity:1;paint-order:markers stroke fill" />
        </g>
      </g>
    </g>
  </g>
</svg>
