<?xml version="1.0" encoding="UTF-8" standalone="no"?>
<!-- Created with Inkscape (http://www.inkscape.org/) -->

<svg
   width="150.00014mm"
   height="129.90422mm"
   viewBox="0 0 150.00014 129.90422"
   version="1.1"
   id="svg7714"
   inkscape:version="1.1.1 (3bf5ae0d25, 2021-09-20)"
   sodipodi:docname="red.svg"
   xmlns:inkscape="http://www.inkscape.org/namespaces/inkscape"
   xmlns:sodipodi="http://sodipodi.sourceforge.net/DTD/sodipodi-0.dtd"
   xmlns="http://www.w3.org/2000/svg"
   xmlns:svg="http://www.w3.org/2000/svg">
  <sodipodi:namedview
     id="namedview7716"
     pagecolor="#ffffff"
     bordercolor="#666666"
     borderopacity="1.0"
     inkscape:pageshadow="2"
     inkscape:pageopacity="0.0"
     inkscape:pagecheckerboard="0"
     inkscape:document-units="mm"
     showgrid="false"
     inkscape:zoom="0.77771465"
     inkscape:cx="-68.148389"
     inkscape:cy="790.77847"
     inkscape:window-width="3840"
     inkscape:window-height="2066"
     inkscape:window-x="-11"
     inkscape:window-y="-11"
     inkscape:window-maximized="1"
     inkscape:current-layer="layer1"
     fit-margin-top="0"
     fit-margin-left="0"
     fit-margin-right="0"
     fit-margin-bottom="0" />
  <defs
     id="defs7711" />
  <g
     inkscape:label="Calque 1"
     inkscape:groupmode="layer"
     id="layer1"
     transform="translate(25.144505,60.842368)">
    <g
       style="display:inline"
       transform="rotate(90,351.23115,-47.986415)"
       id="g22414">
      <path
         inkscape:transform-center-y="-1.6113797e-05"
         inkscape:transform-center-x="-1.3655894e-05"
         inkscape:randomized="0"
         inkscape:rounded="0"
         inkscape:flatsided="true"
         sodipodi:arg2="1.0471976"
         sodipodi:arg1="0.52359878"
         sodipodi:r2="64.951912"
         sodipodi:r1="75"
         sodipodi:cy="253.38911"
         sodipodi:cx="403.3273"
         sodipodi:sides="6"
         id="path22128"
         style="display:inline;opacity:1;fill:#ffc4bb;fill-opacity:1;stroke:none;stroke-width:1.51777;stroke-linecap:round;stroke-linejoin:miter;stroke-miterlimit:4;stroke-dasharray:none;stroke-opacity:1;paint-order:markers stroke fill"
         sodipodi:type="star"
         d="m 468.27921,290.88911 -64.95191,37.5 -64.9519,-37.5 0,-75 64.9519,-37.5 64.95191,37.5 z" />
      <circle
         r="48.022942"
         cy="253.38911"
         cx="403.3273"
         id="circle22130"
         style="font-variation-settings:normal;vector-effect:none;fill:#8b1d1e;fill-opacity:1;fill-rule:evenodd;stroke:#000000;stroke-width:0.466929;stroke-linecap:square;stroke-linejoin:round;stroke-miterlimit:4;stroke-dasharray:none;stroke-dashoffset:0;stroke-opacity:1;stop-color:#000000" />
      <g
         id="g22136"
         transform="matrix(1.3038234,0,0,1.3038234,262.82389,228.81864)">
        <circle
           r="5.072926"
           cy="10.476824"
           cx="79.83168"
           id="circle22132"
           style="opacity:1;fill:none;fill-opacity:1;stroke:#3f1111;stroke-width:1;stroke-miterlimit:4;stroke-dasharray:none;stroke-opacity:1;paint-order:stroke markers fill" />
        <circle
           r="3.1054792"
           cy="11.283092"
           cx="81.036316"
           id="circle22134"
           style="opacity:1;fill:#3f1111;fill-opacity:1;stroke:none;stroke-width:0.600001;stroke-miterlimit:4;stroke-dasharray:none;stroke-opacity:1;paint-order:stroke markers fill" />
      </g>
      <g
         id="g22142"
         transform="matrix(0.80113452,1.0286588,-1.0286588,0.80113452,302.9733,122.04927)">
        <circle
           r="1.6337521"
           cy="-1.9238753"
           cx="96.518684"
           id="circle22138"
           style="opacity:1;fill:#3f1111;fill-opacity:1;stroke:none;stroke-width:0.600001;stroke-miterlimit:4;stroke-dasharray:none;stroke-opacity:1;paint-order:stroke markers fill" />
        <circle
           r="3.049542"
           cy="-1.2719178"
           cx="96.786293"
           id="circle22140"
           style="opacity:1;fill:none;fill-opacity:1;stroke:#3f1111;stroke-width:1;stroke-miterlimit:4;stroke-dasharray:none;stroke-opacity:1;paint-order:stroke markers fill" />
      </g>
      <g
         inkscape:transform-center-y="2.4120803"
         id="g22148"
         transform="matrix(-0.72844208,1.0813546,-1.0813546,-0.72844208,528.12871,116.84024)">
        <circle
           r="1.6337521"
           cy="14.097311"
           cx="110.65489"
           id="circle22144"
           style="opacity:1;fill:#3f1111;fill-opacity:1;stroke:none;stroke-width:0.600001;stroke-miterlimit:4;stroke-dasharray:none;stroke-opacity:1;paint-order:stroke markers fill" />
        <circle
           r="2.5259893"
           cy="13.762787"
           cx="110.87378"
           id="circle22146"
           style="opacity:1;fill:none;fill-opacity:1;stroke:#3f1111;stroke-width:1;stroke-miterlimit:4;stroke-dasharray:none;stroke-opacity:1;paint-order:stroke markers fill" />
      </g>
      <g
         id="g22154"
         transform="matrix(1.3038234,0,0,1.3038234,269.13687,235.93705)">
        <circle
           r="1.0041683"
           cy="13.949944"
           cx="133.12898"
           id="circle22150"
           style="opacity:1;fill:#3f1111;fill-opacity:1;stroke:none;stroke-width:0.600001;stroke-miterlimit:4;stroke-dasharray:none;stroke-opacity:1;paint-order:stroke markers fill" />
        <circle
           r="1.8896269"
           cy="13.678082"
           cx="132.87013"
           id="circle22152"
           style="opacity:1;fill:none;fill-opacity:1;stroke:#3f1111;stroke-width:1;stroke-miterlimit:4;stroke-dasharray:none;stroke-opacity:1;paint-order:stroke markers fill" />
      </g>
      <g
         id="g22160"
         transform="matrix(1.09741,-0.70402191,0.70402191,1.09741,293.69361,299.30902)">
        <circle
           r="3.2791157"
           cy="-2.4504187"
           cx="112.39758"
           id="circle22156"
           style="opacity:1;fill:none;fill-opacity:1;stroke:#3f1111;stroke-width:1;stroke-miterlimit:4;stroke-dasharray:none;stroke-opacity:1;paint-order:stroke markers fill" />
        <circle
           r="1.9986063"
           cy="-1.7480506"
           cx="112.06673"
           id="circle22158"
           style="opacity:1;fill:#3f1111;fill-opacity:1;stroke:none;stroke-width:0.600001;stroke-miterlimit:4;stroke-dasharray:none;stroke-opacity:1;paint-order:stroke markers fill" />
      </g>
      <g
         transform="matrix(1.3038234,0,0,1.3038234,301.26926,279.92021)"
         id="g22166">
        <circle
           style="opacity:1;fill:none;fill-opacity:1;stroke:#3f1111;stroke-width:1;stroke-miterlimit:4;stroke-dasharray:none;stroke-opacity:1;paint-order:stroke markers fill"
           id="circle22162"
           cx="79.83168"
           cy="10.476824"
           r="5.072926" />
        <circle
           style="opacity:1;fill:#3f1111;fill-opacity:1;stroke:none;stroke-width:0.600001;stroke-miterlimit:4;stroke-dasharray:none;stroke-opacity:1;paint-order:stroke markers fill"
           id="circle22164"
           cx="81.036316"
           cy="11.283092"
           r="3.1054792" />
      </g>
      <g
         transform="matrix(-0.7879965,-1.0387575,1.0387575,-0.7879965,484.9349,366.55222)"
         id="g22172">
        <circle
           style="opacity:1;fill:none;fill-opacity:1;stroke:#3f1111;stroke-width:1;stroke-miterlimit:4;stroke-dasharray:none;stroke-opacity:1;paint-order:stroke markers fill"
           id="circle22168"
           cx="79.83168"
           cy="10.476824"
           r="5.072926" />
        <circle
           style="opacity:1;fill:#3f1111;fill-opacity:1;stroke:none;stroke-width:0.600001;stroke-miterlimit:4;stroke-dasharray:none;stroke-opacity:1;paint-order:stroke markers fill"
           id="circle22170"
           cx="81.036316"
           cy="11.283092"
           r="3.1054792" />
      </g>
      <g
         transform="matrix(1.3038234,0,0,1.3038234,218.97666,272.6178)"
         id="g22178">
        <circle
           style="opacity:1;fill:#3f1111;fill-opacity:1;stroke:none;stroke-width:0.600001;stroke-miterlimit:4;stroke-dasharray:none;stroke-opacity:1;paint-order:stroke markers fill"
           id="circle22174"
           cx="133.12898"
           cy="13.949944"
           r="1.0041683" />
        <circle
           style="opacity:1;fill:none;fill-opacity:1;stroke:#3f1111;stroke-width:1;stroke-miterlimit:4;stroke-dasharray:none;stroke-opacity:1;paint-order:stroke markers fill"
           id="circle22176"
           cx="132.87013"
           cy="13.678082"
           r="1.8896269" />
      </g>
      <g
         transform="matrix(1.3038234,0,0,1.3038234,223.3566,193.77884)"
         id="g22184">
        <circle
           style="opacity:1;fill:#3f1111;fill-opacity:1;stroke:none;stroke-width:0.600001;stroke-miterlimit:4;stroke-dasharray:none;stroke-opacity:1;paint-order:stroke markers fill"
           id="circle22180"
           cx="133.12898"
           cy="13.949944"
           r="1.0041683" />
        <circle
           style="opacity:1;fill:none;fill-opacity:1;stroke:#3f1111;stroke-width:1;stroke-miterlimit:4;stroke-dasharray:none;stroke-opacity:1;paint-order:stroke markers fill"
           id="circle22182"
           cx="132.87013"
           cy="13.678082"
           r="1.8896269" />
      </g>
      <g
         inkscape:transform-center-y="-4.8539928"
         inkscape:transform-center-x="-0.78498972"
         transform="matrix(0.80349519,0.12082442,-0.12082442,0.80349519,324.14236,200.13485)"
         id="g22250">
        <path
           id="path22186"
           d="m 101.47255,-15.734254 3.88588,-5.100694 5.87804,3.79299 c 0,0 0.91349,-1.066982 1.23184,-1.263246 0.31836,-0.196263 0.94522,-0.520478 1.50316,-0.176745 0.55793,0.343732 1.62677,1.167824 1.74382,1.563605 0.11706,0.395781 0.23303,0.959633 -0.0131,1.211198 -0.24615,0.251565 -0.50652,0.508551 -0.50652,0.508551 l -0.45182,-0.113854 0.13018,-0.845779 -0.77236,0.473853 -0.1816,-0.182168 0.0788,-1.046379 -1.07759,0.653851 -0.0941,-1.403124 -1.58192,2.081916 0.97147,-0.02277 -0.21224,1.252402 0.89708,-0.182167 c 0,0 0.2188,0.155059 0.26256,0.274336 0.0438,0.119276 0.0645,0.15289 0.0645,0.15289 l -0.28444,0.683129 0.91677,-0.187589 c 0,0 0.1827,0.01301 0.2735,0.147469 0.0908,0.134457 0.22427,0.193011 0.22427,0.193011 0,0 -0.002,0.539997 -0.22536,0.813248 -0.22318,0.273252 -1.0382,0.489033 -1.3664,0.496624 -0.3282,0.0076 -0.86645,-0.04446 -1.64647,-0.595298 -0.78002,-0.55084 -0.85222,-1.236138 -0.89051,-1.690472 -0.0383,-0.454335 0.12471,-1.164572 0.20458,-1.462763 0.0799,-0.298191 0.16628,-0.609394 0.16628,-0.609394 l -4.85516,-2.887574 -3.50188,4.225638 z"
           style="fill:#9c9ca8;fill-opacity:1;stroke:#000000;stroke-width:0.1;stroke-linecap:butt;stroke-linejoin:miter;stroke-miterlimit:4;stroke-dasharray:none;stroke-opacity:1" />
        <path
           id="path22188"
           d="m 96.467516,-15.664857 c 0.182697,0.09542 0.599511,0.232047 0.828156,0.178915 0.228645,-0.05313 0.564502,-0.484696 0.834721,-0.536744 0.270216,-0.05205 0.746104,0.193011 0.891606,0.384937 0.145503,0.191927 0.239586,0.226625 0.460574,0.234216 0.220988,0.0076 0.556847,0.172409 0.604977,0.265661 0.0481,0.09325 -0.318352,0.106264 -0.43322,0.284095 -0.114869,0.17783 -0.132374,0.387106 -0.09955,0.545418 0.03282,0.158313 0.05689,0.47819 0.05689,0.47819 l -3.118982,0.434817 -0.297569,0.256987 c 0,0 -0.160817,-0.349155 -0.17285,-0.525901 -0.01204,-0.176746 0.01312,-0.669032 0.10174,-0.877224 0.08861,-0.208191 0.142219,-0.474937 0.150971,-0.715659 0.0088,-0.240721 0.192543,-0.407708 0.192543,-0.407708 z"
           style="fill:#8b1d1e;fill-opacity:1;stroke:#000000;stroke-width:0.1;stroke-linecap:butt;stroke-linejoin:miter;stroke-miterlimit:4;stroke-dasharray:none;stroke-opacity:1" />
        <path
           sodipodi:nodetypes="ccccccccc"
           id="path22190"
           d="m 96.274092,-13.060154 -1.122332,-6.804809 c -0.382128,0.487318 -0.40954,0.845282 -0.427411,1.345436 l -1.262967,-2.112931 c 0.663,0.36025 1.037711,0.529761 1.624922,0.586917 0.16429,-0.519018 0.204069,-0.959482 0.140369,-1.634281 l 1.376958,2.26341 c -0.613781,-0.277709 -0.893343,-0.380217 -1.449794,-0.40349 z"
           style="fill:#71717f;fill-opacity:1;stroke:#000000;stroke-width:0.1;stroke-linecap:butt;stroke-linejoin:miter;stroke-miterlimit:4;stroke-dasharray:none;stroke-opacity:1" />
        <path
           sodipodi:nodetypes="cc"
           id="path22192"
           d="m 90.577505,-17.235809 c -0.558578,-1.615372 -0.411476,-3.125828 0.843195,-4.471616"
           style="fill:none;stroke:#000000;stroke-width:0.264583px;stroke-linecap:butt;stroke-linejoin:miter;stroke-opacity:1" />
        <path
           sodipodi:nodetypes="cc"
           id="path22194"
           d="m 88.821494,-18.74935 c -0.14484,-1.034375 0.164638,-2.080644 1.112399,-3.143625"
           style="fill:none;stroke:#000000;stroke-width:0.264583px;stroke-linecap:butt;stroke-linejoin:miter;stroke-opacity:1" />
        <path
           sodipodi:nodetypes="cc"
           id="path22196"
           d="m 87.501779,-20.586454 c -0.09389,-0.458399 0.02553,-0.949445 0.491993,-1.493605"
           style="fill:none;stroke:#000000;stroke-width:0.264583px;stroke-linecap:butt;stroke-linejoin:miter;stroke-opacity:1" />
        <path
           sodipodi:nodetypes="cc"
           id="path22198"
           d="m 96.707295,-23.274637 c 1.796829,1.108666 1.766168,2.66616 1.74363,4.221659"
           style="fill:none;stroke:#000000;stroke-width:0.264583px;stroke-linecap:butt;stroke-linejoin:miter;stroke-opacity:1" />
        <path
           sodipodi:nodetypes="cc"
           id="path22200"
           d="m 98.314776,-23.819021 c 1.165881,1.006052 1.542773,2.036457 1.519298,3.07922"
           style="fill:none;stroke:#000000;stroke-width:0.264583px;stroke-linecap:butt;stroke-linejoin:miter;stroke-opacity:1" />
        <path
           sodipodi:nodetypes="cc"
           id="path22202"
           d="m 100.03365,-24.364938 c 0.45101,0.519759 0.62659,1.028883 0.76429,1.536543"
           style="fill:none;stroke:#000000;stroke-width:0.264583px;stroke-linecap:butt;stroke-linejoin:miter;stroke-opacity:1" />
        <path
           id="path22204"
           d="m 99.303156,-15.64317 c 0.08315,-0.345902 0.156443,-0.687466 0.379616,-0.672286 0.223176,0.01518 0.486828,0.02277 0.710008,-0.148553 0.22317,-0.171324 0.66843,-0.08783 0.79752,0.0141 0.12909,0.101927 0.0449,0.211444 0.30304,0.21036 0.25818,-0.0011 0.58966,-0.225541 0.82268,-0.05313 0.23303,0.172409 0.41354,0.0033 0.44089,0.339396 0.0273,0.336142 0.0995,0.412045 0.0536,0.629996 -0.0459,0.217951 0.0558,0.320962 -0.1466,0.434817 -0.20239,0.113855 -0.29537,0.24289 -0.32491,0.362166 -0.0295,0.119277 -0.0547,0.269999 -0.0547,0.269999 l -0.17285,0.08566 -2.506351,0.239637 c 0,0 -0.350079,-0.288432 -0.469324,-0.561684 -0.119245,-0.273251 0.105024,-1.006259 0.167381,-1.150475 z"
           style="fill:#8b1d1e;fill-opacity:1;stroke:#000000;stroke-width:0.1;stroke-linecap:butt;stroke-linejoin:miter;stroke-miterlimit:4;stroke-dasharray:none;stroke-opacity:1" />
        <path
           sodipodi:nodetypes="ccccc"
           id="path22206"
           d="m 97.130559,-9.4510484 1.05732,-1.4814866 1.925131,1.2874419 1.50564,-1.7450289 1.40392,1.4209249"
           style="fill:none;stroke:#71717f;stroke-width:0.264583px;stroke-linecap:butt;stroke-linejoin:miter;stroke-opacity:1" />
        <path
           id="path22208"
           d="m 96.79548,-11.25372 -0.04951,-0.461576 c 0,0 -0.782854,-0.46771 -0.772025,-0.774405 0.01082,-0.306695 0.19494,-0.742202 0.4332,-0.867947 0.238263,-0.125746 1.95095,-0.306696 2.226342,-0.368035 0.275391,-0.06134 3.313983,-0.50298 3.541413,-0.509114 0.22743,-0.0061 0.51366,-0.01534 0.68075,0.161015 0.16709,0.17635 0.55233,0.394104 0.47652,0.752937 -0.0758,0.358833 -0.0774,0.476911 -0.42392,0.663995 -0.34656,0.187084 -0.15471,0.668595 -0.15471,0.668595 z"
           style="fill:#71717f;fill-opacity:1;stroke:#000000;stroke-width:0.1;stroke-linecap:butt;stroke-linejoin:miter;stroke-miterlimit:4;stroke-dasharray:none;stroke-opacity:1" />
        <path
           id="path22210"
           d="m 96.162698,-10.744605 7.215882,-0.782073 -0.008,-0.550518 -7.262302,0.854146 z"
           style="fill:#9c9ca8;fill-opacity:1;stroke:#000000;stroke-width:0.1;stroke-linecap:butt;stroke-linejoin:miter;stroke-miterlimit:4;stroke-dasharray:none;stroke-opacity:1" />
        <path
           id="path22212"
           d="m 112.81402,-14.952451 c -0.0142,-0.429396 -0.0317,-0.704816 0.22317,-0.827345 0.2549,-0.122529 0.66296,-0.04771 0.80737,-0.05422 0.14441,-0.0065 0.76908,0.461926 0.96053,0.497708 0.19145,0.03578 0.22208,0.08675 0.40806,0.18759 0.18598,0.100842 0.55247,0.25048 0.51418,0.555177 -0.0383,0.304697 0.01,0.574696 -0.14769,0.712406 -0.15754,0.13771 -0.46276,0.377347 -0.56997,0.544334 -0.10722,0.166987 -0.1105,0.474937 -0.27569,0.455419 -0.16519,-0.01952 -0.31945,-0.179999 -0.43432,-0.381684 -0.11487,-0.201686 -0.24505,-0.233132 -0.38071,-0.356745 -0.13565,-0.123614 -0.419,-0.199517 -0.48026,-0.374095 -0.0613,-0.174577 -0.1827,-0.146384 -0.28554,-0.249396 -0.10283,-0.103011 -0.35992,-0.495539 -0.33913,-0.709152 z"
           style="fill:#8b1d1e;fill-opacity:1;stroke:#000000;stroke-width:0.1;stroke-linecap:butt;stroke-linejoin:miter;stroke-miterlimit:4;stroke-dasharray:none;stroke-opacity:1" />
        <g
           transform="translate(0.20422314,-0.32509689)"
           id="g22224">
          <path
             sodipodi:nodetypes="cc"
             id="path22214"
             d="m 96.013014,-9.7777216 1.767898,1.2545712"
             style="fill:none;stroke:#71717f;stroke-width:0.2;stroke-linecap:butt;stroke-linejoin:miter;stroke-miterlimit:4;stroke-dasharray:none;stroke-opacity:1" />
          <path
             sodipodi:nodetypes="cc"
             id="path22216"
             d="m 96.806162,-10.096515 0.168473,2.0190246"
             style="fill:none;stroke:#71717f;stroke-width:0.2;stroke-linecap:butt;stroke-linejoin:miter;stroke-miterlimit:4;stroke-dasharray:none;stroke-opacity:1" />
          <path
             sodipodi:nodetypes="cc"
             id="path22218"
             d="m 97.500849,-9.9468772 -1.226371,1.6796291"
             style="fill:none;stroke:#71717f;stroke-width:0.2;stroke-linecap:butt;stroke-linejoin:miter;stroke-miterlimit:4;stroke-dasharray:none;stroke-opacity:1" />
          <path
             id="path22220"
             d="m 97.928601,-9.2930257 -2.1136,0.3513233"
             style="fill:none;stroke:#71717f;stroke-width:0.2;stroke-linecap:butt;stroke-linejoin:miter;stroke-miterlimit:4;stroke-dasharray:none;stroke-opacity:1" />
          <circle
             r="1.0875591"
             cy="-9.1134834"
             cx="96.909225"
             id="circle22222"
             style="opacity:1;fill:none;fill-opacity:1;stroke:#000000;stroke-width:0.479863;stroke-miterlimit:4;stroke-dasharray:none;stroke-opacity:1;paint-order:stroke markers fill" />
        </g>
        <g
           transform="translate(3.1816268,-0.52197613)"
           id="g22236">
          <path
             sodipodi:nodetypes="cc"
             id="path22226"
             d="m 96.013014,-9.7777216 1.767898,1.2545712"
             style="fill:none;stroke:#71717f;stroke-width:0.2;stroke-linecap:butt;stroke-linejoin:miter;stroke-miterlimit:4;stroke-dasharray:none;stroke-opacity:1" />
          <path
             sodipodi:nodetypes="cc"
             id="path22228"
             d="m 96.806162,-10.096515 0.168473,2.0190246"
             style="fill:none;stroke:#71717f;stroke-width:0.2;stroke-linecap:butt;stroke-linejoin:miter;stroke-miterlimit:4;stroke-dasharray:none;stroke-opacity:1" />
          <path
             sodipodi:nodetypes="cc"
             id="path22230"
             d="m 97.500849,-9.9468772 -1.226371,1.6796291"
             style="fill:none;stroke:#71717f;stroke-width:0.2;stroke-linecap:butt;stroke-linejoin:miter;stroke-miterlimit:4;stroke-dasharray:none;stroke-opacity:1" />
          <path
             id="path22232"
             d="m 97.928601,-9.2930257 -2.1136,0.3513233"
             style="fill:none;stroke:#71717f;stroke-width:0.2;stroke-linecap:butt;stroke-linejoin:miter;stroke-miterlimit:4;stroke-dasharray:none;stroke-opacity:1" />
          <circle
             r="1.0875591"
             cy="-9.1134834"
             cx="96.909225"
             id="circle22234"
             style="opacity:1;fill:none;fill-opacity:1;stroke:#000000;stroke-width:0.479863;stroke-miterlimit:4;stroke-dasharray:none;stroke-opacity:1;paint-order:stroke markers fill" />
        </g>
        <g
           transform="translate(6.1610413,-0.84734566)"
           id="g22248">
          <path
             sodipodi:nodetypes="cc"
             id="path22238"
             d="m 96.013014,-9.7777216 1.767898,1.2545712"
             style="fill:none;stroke:#71717f;stroke-width:0.2;stroke-linecap:butt;stroke-linejoin:miter;stroke-miterlimit:4;stroke-dasharray:none;stroke-opacity:1" />
          <path
             sodipodi:nodetypes="cc"
             id="path22240"
             d="m 96.806162,-10.096515 0.168473,2.0190246"
             style="fill:none;stroke:#71717f;stroke-width:0.2;stroke-linecap:butt;stroke-linejoin:miter;stroke-miterlimit:4;stroke-dasharray:none;stroke-opacity:1" />
          <path
             sodipodi:nodetypes="cc"
             id="path22242"
             d="m 97.500849,-9.9468772 -1.226371,1.6796291"
             style="fill:none;stroke:#71717f;stroke-width:0.2;stroke-linecap:butt;stroke-linejoin:miter;stroke-miterlimit:4;stroke-dasharray:none;stroke-opacity:1" />
          <path
             id="path22244"
             d="m 97.928601,-9.2930257 -2.1136,0.3513233"
             style="fill:none;stroke:#71717f;stroke-width:0.2;stroke-linecap:butt;stroke-linejoin:miter;stroke-miterlimit:4;stroke-dasharray:none;stroke-opacity:1" />
          <circle
             r="1.0875591"
             cy="-9.1134834"
             cx="96.909225"
             id="circle22246"
             style="opacity:1;fill:none;fill-opacity:1;stroke:#000000;stroke-width:0.479863;stroke-miterlimit:4;stroke-dasharray:none;stroke-opacity:1;paint-order:stroke markers fill" />
        </g>
      </g>
      <g
         transform="matrix(1.3038234,0,0,1.3038234,195.51267,249.46668)"
         id="g22256">
        <circle
           style="opacity:1;fill:#3f1111;fill-opacity:1;stroke:none;stroke-width:0.600001;stroke-miterlimit:4;stroke-dasharray:none;stroke-opacity:1;paint-order:stroke markers fill"
           id="circle22252"
           cx="133.12898"
           cy="13.949944"
           r="1.0041683" />
        <circle
           style="opacity:1;fill:none;fill-opacity:1;stroke:#3f1111;stroke-width:1;stroke-miterlimit:4;stroke-dasharray:none;stroke-opacity:1;paint-order:stroke markers fill"
           id="circle22254"
           cx="132.87013"
           cy="13.678082"
           r="1.8896269" />
      </g>
      <g
         transform="matrix(-0.72844208,1.0813546,-1.0813546,-0.72844208,458.14239,146.79501)"
         id="g22262"
         inkscape:transform-center-y="2.4120803">
        <circle
           style="opacity:1;fill:#3f1111;fill-opacity:1;stroke:none;stroke-width:0.600001;stroke-miterlimit:4;stroke-dasharray:none;stroke-opacity:1;paint-order:stroke markers fill"
           id="circle22258"
           cx="110.65489"
           cy="14.097311"
           r="1.6337521" />
        <circle
           style="opacity:1;fill:none;fill-opacity:1;stroke:#3f1111;stroke-width:1;stroke-miterlimit:4;stroke-dasharray:none;stroke-opacity:1;paint-order:stroke markers fill"
           id="circle22260"
           cx="110.87378"
           cy="13.762787"
           r="2.5259893" />
      </g>
      <path
         sodipodi:nodetypes="cssssscccsssscccccccsscc"
         id="path22264"
         d="m 362.46266,229.96024 c 0.45485,0.16613 0.70396,0.71205 1.30875,0.2651 0.60479,-0.44695 1.08633,-0.32723 1.4631,-0.51488 0.37674,-0.18764 0.57657,0.77863 1.20303,0.60625 0.62644,-0.17238 -0.0937,-1.68097 0.26246,-2.05531 0.35616,-0.37434 0.26664,-0.52304 0.84352,-0.49634 0.5769,0.0267 0.76363,0.1666 0.76363,0.1666 l 0.73529,-0.51073 0.43737,-1.0739 c 0,0 0.64727,-0.11017 1.18235,-0.10414 0.53511,0.006 1.05041,0.0793 1.26603,-0.81469 0.21565,-0.89396 -0.049,-0.80178 0.29292,-1.46291 0.34194,-0.66114 0.22617,-0.58031 0.61854,-1.24888 0.39237,-0.66858 0.51618,-0.21036 0.5749,-1.39686 0.0586,-1.18651 0.5799,-0.67573 0.5799,-0.67573 0,0 0.85532,0.60347 0.88511,-0.23878 0.0299,-0.84225 -0.4963,-0.70028 -0.27802,-1.16452 0.21857,-0.46433 0.59747,-0.67489 0.59747,-0.67489 0,0 -0.10144,-0.67976 -0.0341,-1.3085 -0.0547,-2.02507 -1.82959,-0.84541 -3.99103,0.76904 -0.45821,0.34285 -2.48149,2.50327 -2.98427,3.00246 -0.50279,0.49918 -3.20142,3.60474 -3.74888,4.32251 -0.54747,0.71777 -1.09308,3.11583 -1.09308,3.11583 z"
         style="fill:#3f1111;fill-opacity:1;stroke:none;stroke-width:0.344969px;stroke-linecap:butt;stroke-linejoin:miter;stroke-opacity:1" />
      <g
         transform="matrix(1.267528,-0.30549739,0.30549739,1.267528,264.16313,249.60465)"
         style="fill:#965e54;fill-opacity:1;stroke:#8b1d1e;stroke-width:0.1;stroke-miterlimit:4;stroke-dasharray:none;stroke-opacity:1"
         id="g22276">
        <path
           id="path22266"
           d="m 76.276686,-3.7061722 c 0,0 -0.447593,-0.2468951 -0.67723,0.1350209 -0.229635,0.3819162 0.01558,0.9142841 0.01558,0.9142841 0,0 0.467053,0.1311631 0.155683,0.412778 -0.311369,0.2816148 -0.408673,-0.1890292 -0.377536,0.4937905 0.03114,0.6828196 -0.529328,0.98372324 0.299693,1.03387382 0.829024,0.0501506 0.665554,-0.48221732 1.175422,0.0308619 0.509871,0.51307918 0.93022,0.41277799 0.568251,0.7869786 -0.361968,0.37420061 -1.124823,0.45521312 -0.529328,0.60952267 0.595495,0.15430952 0.280233,0.10801667 0.747287,0.10030118 0.467055,-0.007716 0.482623,0.76383223 1.074226,0.15816728 0.591603,-0.60566492 1.117042,-1.35020842 1.525715,-1.59710366 0.408673,-0.24689525 0.73561,-0.47835949 0.73561,-0.47835949 0,0 0.576035,-0.2044602 0.365861,-0.6326691 -0.210175,-0.428209 -0.206283,-0.9837232 -1.288293,-1.2306186 -1.082011,-0.2468951 -1.140394,-0.2700417 -1.619126,-0.5092213 -0.478729,-0.2391799 -1.564632,-0.1427364 -1.564632,-0.1427364 z"
           style="fill:#965e54;fill-opacity:1;stroke:#8b1d1e;stroke-width:0.1;stroke-linecap:butt;stroke-linejoin:miter;stroke-miterlimit:4;stroke-dasharray:none;stroke-opacity:1" />
        <path
           id="path22268"
           d="m 80.888855,-1.4763993 c -0.303586,-0.3433387 -0.175146,-0.5362256 -0.836806,-0.7908364 -0.661662,-0.2546107 -1.031414,-0.088728 -1.229913,-0.3857739 -0.198498,-0.2970458 -0.432025,-0.6249535 -0.101195,-0.9219993 0.330832,-0.2970459 0.646094,-0.4667864 1.117042,-0.8255561 0.470945,-0.3587697 0.396996,-0.5902338 0.86405,-0.6828198 0.467055,-0.092586 0.105087,-0.011573 0.634417,-0.1350208 0.529329,-0.1234474 1.02752,-0.5825183 1.381705,-0.1543095 0.354182,0.4282091 0.377536,-0.2044599 0.626631,0.6018072 0.249097,0.8062675 0.299694,0.8795644 0.299694,0.8795644 l 0.377536,0.3510542 c 0,0 0.603279,-0.1697405 -0.08563,0.3664853 -0.688906,0.5362255 -1.226018,1.1226017 -1.673614,1.4389362 -0.447593,0.3163346 -1.37392,0.2584685 -1.37392,0.2584685 z"
           style="fill:#965e54;fill-opacity:1;stroke:#8b1d1e;stroke-width:0.1;stroke-linecap:butt;stroke-linejoin:miter;stroke-miterlimit:4;stroke-dasharray:none;stroke-opacity:1" />
        <path
           id="path22270"
           d="m 83.407061,-5.017803 c 0.435917,-0.4590709 1.082011,-0.9528614 1.082011,-0.9528614 0,0 0.0467,-0.3934894 0.739502,-0.5632299 0.692799,-0.1697406 0.980816,-0.1967447 0.980816,-0.1967447 0,0 -0.0973,-0.2854725 0.432028,-0.3471963 0.529328,-0.061724 0.856265,-0.046293 0.856265,-0.046293 0,0 0.373645,-0.1967447 0.354185,0.32405 -0.01947,0.5207947 -0.07784,0.7599743 -0.07784,0.7599743 l 0.47484,0.3009038 c 0,0 0.167362,0.162025 -0.06227,0.5477986 -0.229635,0.3857738 -0.264663,0.5825185 -0.914649,0.8525602 -0.649986,0.2700417 -0.867945,0.1273054 -1.443979,0.4204936 -0.576035,0.2931879 -0.673339,0.4590708 -1.089795,0.5863762 -0.416457,0.1273053 0.07006,1.076309 -0.677231,0.057866 -0.747286,-1.0184429 -0.891296,-1.045447 -0.758962,-1.4157899 0.132331,-0.3703428 0.105087,-0.3279076 0.105087,-0.3279076 z"
           style="fill:#965e54;fill-opacity:1;stroke:#8b1d1e;stroke-width:0.1;stroke-linecap:butt;stroke-linejoin:miter;stroke-miterlimit:4;stroke-dasharray:none;stroke-opacity:1" />
        <path
           id="path22272"
           d="m 81.725663,-5.0602382 c -0.490408,-0.2121757 -0.583819,0.042435 -0.735613,-0.2893303 -0.151791,-0.3317656 -0.08952,-0.3471966 -0.233526,-0.6481001 -0.144011,-0.3009037 -0.0078,-0.081012 -0.326938,-0.3742007 -0.319156,-0.293188 -0.467056,-0.5863762 -0.467056,-0.5863762 0,0 -0.529331,-0.00772 -0.299693,-0.6403845 0.229634,-0.6326691 -0.167363,-1.1496061 0.361965,-0.7291126 0.529331,0.4204936 0.529331,0.5786607 0.961356,0.3124769 0.432028,-0.2661841 -0.01556,-0.3857739 0.478732,-0.5285102 0.4943,-0.1427364 0.673338,-0.1157322 0.673338,-0.1157322 0,0 0.323046,0.092586 0.369752,0.486075 0.04671,0.3934894 -0.206282,1.1496061 0.389213,0.7638322 0.595495,-0.3857738 0.685014,-0.810125 1.004168,-0.8602755 0.319154,-0.050151 0.307478,-0.4012049 0.73561,-0.054008 0.428136,0.3471963 0.342509,0.2623262 0.4943,0.721397 0.151794,0.4590709 0.175147,0.5748028 0.175147,0.5748028 l 0.140115,0.3780584 -0.541004,0.6558155 c 0,0 -0.591603,0.4127781 -1.054767,0.7792633 -0.463161,0.3664852 -0.432025,0.6635311 -0.867944,0.6018072 -0.435917,-0.061724 -1.00806,-0.1967447 -1.00806,-0.1967447 z"
           style="fill:#965e54;fill-opacity:1;stroke:#8b1d1e;stroke-width:0.1;stroke-linecap:butt;stroke-linejoin:miter;stroke-miterlimit:4;stroke-dasharray:none;stroke-opacity:1" />
        <path
           id="path22274"
           d="m 78.195505,-6.9852497 c 0.326938,-0.4937905 0.05449,-0.6751042 0.576035,-0.9219993 0.521544,-0.2468954 0.470945,-0.2584686 0.840698,-0.050151 0.369752,0.2083178 0.723937,0.7908364 0.8407,1.0840246 0.116763,0.2931879 0.276341,0.3742005 0.272449,0.9451459 -0.0039,0.5709451 -0.02725,1.0994554 -0.02725,1.0994554 0,0 0.832916,0.3780583 0.330832,0.7561167 -0.502084,0.3780583 -0.747289,0.3664849 -0.747289,0.3664849 0,0 -0.175146,-0.470644 -0.614955,-0.1658826 -0.439812,0.3047614 -0.677231,0.6249535 -0.677231,0.6249535 0,0 -0.03503,0.3163345 -0.544898,-0.061724 -0.509868,-0.3780583 -0.579927,-0.4282091 -0.941893,-0.3819162 -0.361969,0.046293 -0.412565,-0.1041588 -0.891297,-0.096444 -0.478732,0.00772 -0.735613,0.019288 -0.688906,-0.3317652 0.0467,-0.3510542 0.55268,-0.4359246 -0.03892,-0.4937906 -0.591603,-0.057866 -0.673335,-0.1427363 -0.673335,-0.1427363 0,0 0.638307,-0.2738996 1.04698,-0.3201924 0.408673,-0.046293 -0.02724,0.1427363 0.303585,-0.5555142 0.330833,-0.6982507 -0.198498,-0.8332716 0.447596,-0.7484014 0.646091,0.08487 0.949677,-0.1003012 0.949677,-0.1003012 0,0 -0.116763,-0.092586 0.237421,-0.5053637 z"
           style="fill:#965e54;fill-opacity:1;stroke:#8b1d1e;stroke-width:0.1;stroke-linecap:butt;stroke-linejoin:miter;stroke-miterlimit:4;stroke-dasharray:none;stroke-opacity:1" />
      </g>
      <path
         sodipodi:nodetypes="csccscssscsscsssssscsssccssscc"
         id="path22278"
         d="m 441.5965,224.15427 c -0.84428,0.26907 -0.9741,0.46061 -1.10221,0.89281 -0.12811,0.4322 -0.14305,1.21292 -0.14305,1.21292 l -0.47157,0.38402 c 0,0 -0.73694,-0.52389 -0.76835,-0.10108 -0.0315,0.4228 0.0926,0.90413 0.0926,0.90413 0,0 0.54587,0.13697 0.0426,0.47657 -0.50327,0.33959 -0.71435,0.16142 -0.71784,0.72792 -0.004,0.56658 0.53653,0.84353 0.2276,1.1349 -0.309,0.29142 -0.55802,0.34017 -0.55802,0.34017 0,0 -0.30323,0.15142 -0.0382,0.5082 0.26499,0.35671 1.15163,0.63006 1.04328,1.21872 -0.10836,0.58866 -0.14527,1.16958 -0.14527,1.16958 0,0 0.94838,0.87002 1.11099,1.31036 0.16254,0.44036 0.94831,1.16935 1.23931,1.9441 0.29108,0.77472 0.2358,0.37384 0.69391,0.92721 0.45813,0.55338 0.34464,0.18667 0.96917,0.78166 0.62458,0.595 0.59424,0.47361 0.68371,0.98047 0.0894,0.50686 -0.24056,0.95235 0.75135,1.0721 0.99195,0.11974 1.03088,-0.35211 1.17967,0.32481 0.14859,0.67696 -0.21667,0.72829 0.374,1.23552 0.59062,0.50721 0.50015,1.07752 1.08786,0.67269 0.58769,-0.40482 0.40435,-0.22383 0.59982,-0.5826 0.19545,-0.35876 0.0115,-0.36385 0.43695,-0.80754 0.42553,-0.44369 0.0778,-0.34494 0.44818,-0.67455 0.37009,-0.32981 0.99396,-1.12563 0.61228,-1.64759 -0.38175,-0.522 -1.96592,-3.34626 -2.07132,-4.558 -0.10546,-1.21171 -1.4185,-3.57472 -1.97991,-4.3984 -0.56146,-0.82368 -3.59709,-5.44888 -3.59709,-5.44888 z"
         style="fill:#3f1111;fill-opacity:1;stroke:none;stroke-width:0.344969px;stroke-linecap:butt;stroke-linejoin:miter;stroke-opacity:1" />
      <g
         style="fill:#8b1d1e;fill-opacity:1;stroke:#3f1111;stroke-width:0.2;stroke-miterlimit:4;stroke-dasharray:none;stroke-opacity:1"
         id="g22300"
         transform="matrix(1.0952382,0.70739575,-0.70739575,1.0952382,309.65662,149.87735)">
        <path
           id="path22280"
           d="m 119.27974,-8.0692523 c 0.47962,-0.1656155 1.30424,-0.2499567 1.51156,-0.1073434 0.20732,0.1426134 0.65444,0.1334125 0.90663,0.6532608 0.25218,0.5198483 0.58482,-0.8541462 0.62814,0.9139515 0.0433,1.7680977 -0.53377,1.9720502 -0.77358,2.0533243 -0.2398,0.081274 -0.20422,0.076674 -0.33418,0.1226781 -0.12996,0.046004 -0.0835,0.03527 -0.57244,0.046004 -0.4889,0.010734 -0.53996,0.1579481 -1.23772,-0.1134771 -0.69776,-0.2714252 -1.42182,-0.5290492 -1.4342,-0.6762628 -0.0124,-0.1472137 -0.0433,-0.345032 0.0634,-0.567386 0.10676,-0.222354 -0.0557,-0.061339 0.23672,-0.3480991 0.29241,-0.2867602 0.40999,-0.1441468 0.45795,-0.380302 0.048,-0.2361554 -0.29705,0.2545569 0.0495,-0.4738441 0.34656,-0.7284011 0.49818,-1.1225043 0.49818,-1.1225043 z"
           style="fill:#8b1d1e;fill-opacity:1;stroke:#3f1111;stroke-width:0.2;stroke-linecap:butt;stroke-linejoin:miter;stroke-miterlimit:4;stroke-dasharray:none;stroke-opacity:1" />
        <path
           id="path22282"
           d="m 117.57169,-9.4754498 c 0.35584,-0.013801 0.66682,0.1242116 0.96697,0.476911 0.30014,0.3526996 0.40535,0.6348592 0.54923,0.7376019 0.14389,0.102743 0.28932,0.2330884 0.43939,0.5137145 0.15008,0.2806261 0.31098,0.3296973 0.11604,0.7038655 -0.19494,0.3741681 -0.61267,0.7820726 -0.73335,0.8909494 -0.12067,0.1088768 -0.53686,0.2070193 -0.79987,0.1855507 -0.26302,-0.021468 -0.79369,-0.019936 -0.98089,-0.1257451 -0.18721,-0.1058098 -0.29705,-0.029136 -0.49199,-0.1947516 -0.19494,-0.1656154 -0.43011,-0.1870839 -0.47807,-0.312829 -0.048,-0.1257451 -0.15936,0.03527 -0.25064,-0.3971703 -0.0913,-0.43244 -0.1872,-0.015335 -0.11294,-0.657861 0.0743,-0.6425264 -0.0464,-0.5397836 0.17792,-0.7744053 0.22434,-0.2346219 0.63742,-0.7774723 1.04123,-0.8296105 0.4038,-0.052138 0.27849,-0.1441469 0.55697,-0.2162202 z"
           style="fill:#8b1d1e;fill-opacity:1;stroke:#3f1111;stroke-width:0.2;stroke-linecap:butt;stroke-linejoin:miter;stroke-miterlimit:4;stroke-dasharray:none;stroke-opacity:1" />
        <path
           id="path22284"
           d="m 122.04139,-6.9344801 c 0.46415,0.056739 0.75501,0.1656154 1.06599,0.174816 0.31097,0.0092 0.76429,0.4048377 0.91126,0.4646433 0.14698,0.059806 0.56007,0.2131531 0.56007,0.4876453 0,0.2744922 -0.12068,0.5903883 0.0356,0.8679474 0.15626,0.2775593 0.39761,0.2330884 0.50127,0.4217058 0.10366,0.1886175 0.0866,0.2867602 0.10985,0.4677103 0.0232,0.1809502 0.19339,0.2530235 -0.0356,0.499913 -0.22898,0.2468896 -0.48271,0.5888549 -0.48271,0.5888549 0,0 0.1671,0.2085527 -0.0108,0.5275156 -0.17792,0.318963 -0.56935,0.3910364 -0.83391,0.2760257 -0.26456,-0.1150107 -0.31716,-0.3312308 -0.88187,-0.7529366 -0.56471,-0.4217059 -0.48271,-0.4263065 -0.79988,-0.5428507 -0.31716,-0.1165439 -0.71013,-0.3910361 -0.71013,-0.3910361 l -0.24446,-0.5627857 c 0,0 -0.61266,-0.1058098 -0.35893,-0.6409931 0.25373,-0.535183 0.37441,-0.380302 0.57089,-0.7391352 0.19649,-0.3588335 0.37441,-0.6900643 0.3806,-0.8204097 0.006,-0.1303454 0.006,-0.380302 0.22279,-0.3266302 z"
           style="fill:#8b1d1e;fill-opacity:1;stroke:#3f1111;stroke-width:0.2;stroke-linecap:butt;stroke-linejoin:miter;stroke-miterlimit:4;stroke-dasharray:none;stroke-opacity:1" />
        <path
           id="path22286"
           d="m 125.65862,-3.8475933 c 0.65753,-0.1962848 1.17428,-0.0046 1.39397,0.062873 0.2197,0.067473 0.39762,0.119611 0.59256,0.2821593 0.19494,0.1625487 0.66682,0.6287252 0.63124,0.9415543 -0.0356,0.3128291 -0.27849,0.7836062 -0.23362,0.9798911 0.0449,0.196285 0.27384,0.2683583 -0.0557,0.4523754 -0.32954,0.18401712 -0.8633,0.24228922 -1.03813,0.33583122 -0.17483,0.093542 -0.63897,0.23155487 -0.63897,0.23155487 0,0 -0.64362,-0.39717025 -0.72252,-0.55358479 -0.0789,-0.1564146 -0.22124,-0.3020948 -0.50437,-0.5428505 -0.28313,-0.2407557 -0.48116,-0.1932179 -0.46414,-0.4155719 0.017,-0.222354 0.0402,-0.196285 0.0526,-0.412505 0.0124,-0.21622 0.0789,-0.3695678 0.34811,-0.7145998 0.2692,-0.345032 0.25218,-0.3204964 0.46878,-0.4738441 0.2166,-0.1533475 0.30169,-0.1640819 0.30169,-0.1640819 0,0 -0.36976,0.010734 -0.1315,-0.0092 z"
           style="fill:#8b1d1e;fill-opacity:1;stroke:#3f1111;stroke-width:0.2;stroke-linecap:butt;stroke-linejoin:miter;stroke-miterlimit:4;stroke-dasharray:none;stroke-opacity:1" />
        <path
           id="path22288"
           d="m 123.61793,-7.6858833 c -0.0449,-0.3572999 -0.1315,-0.7207337 -0.1315,-0.7207337"
           style="fill:#8b1d1e;fill-opacity:1;stroke:#3f1111;stroke-width:0.2;stroke-linecap:butt;stroke-linejoin:miter;stroke-miterlimit:4;stroke-dasharray:none;stroke-opacity:1" />
        <path
           id="path22290"
           d="m 123.28066,-9.7054711 c 0.47806,0.093542 0.60338,0.099676 0.77666,0.4738441 0.17328,0.374168 0.49045,0.4539089 0.42083,0.8909495 -0.0696,0.4370406 -0.0944,0.6992649 -0.32954,1.0611651 -0.23517,0.3619005 -0.50283,0.5581854 -0.50283,0.5581854 0,0 -0.36358,0.1671489 -0.48271,0.1518139 -0.11913,-0.015335 -0.88496,0.081275 -0.88496,0.081275 l -0.49664,-0.050605 -0.15935,-0.055205 c 0,0 -0.11604,-0.069006 -0.24909,-0.085875 -0.13306,-0.016867 -0.35585,-0.1778833 -0.44713,-0.3005613 -0.0913,-0.1226781 -0.78904,0.6808634 -0.31562,-0.5428504 0.47343,-1.2237138 0.63588,-1.3893292 0.8169,-1.5595449 0.18101,-0.170216 0.47342,-0.3741682 0.73025,-0.4615765 0.25683,-0.087408 0.94685,-0.03987 1.12323,-0.1610149 z"
           style="fill:#8b1d1e;fill-opacity:1;stroke:#3f1111;stroke-width:0.2;stroke-linecap:butt;stroke-linejoin:miter;stroke-miterlimit:4;stroke-dasharray:none;stroke-opacity:1" />
        <path
           id="path22292"
           d="m 123.72933,-8.822189 c 0.41928,-0.2453561 0.34037,-0.073607 0.68848,-0.3189629 0.3481,-0.2453563 0.63433,-0.3465655 0.79678,-0.3941035 0.16245,-0.047538 0.18875,-0.1702157 0.59101,-0.059805 0.40225,0.1104101 0.58482,-0.2054859 0.80761,0.2499564 0.22279,0.4554424 0.38369,0.8418782 0.45486,1.1976447 0.0712,0.3557664 0.37286,0.1702159 0.22588,0.5689197 -0.14698,0.3987036 -0.11294,0.7053988 -0.72716,1.015161 -0.61421,0.309762 -1.12632,0.3987036 -1.52239,0.4370406 -0.39607,0.038337 -0.62504,0.1042763 -0.74882,0.00767 -0.12377,-0.096609 -0.4827,0.1104103 -0.55542,-0.3864359 -0.0727,-0.4968462 -0.246,-0.670129 -0.18566,-0.9292865 0.0603,-0.2591575 0.0217,-0.1456801 0.0402,-0.4661765 0.0186,-0.3204967 -0.0897,-0.3680344 0.006,-0.5229154 0.0959,-0.154881 -0.0526,-0.2514901 0.12841,-0.3987038 z"
           style="fill:#8b1d1e;fill-opacity:1;stroke:#3f1111;stroke-width:0.2;stroke-linecap:butt;stroke-linejoin:miter;stroke-miterlimit:4;stroke-dasharray:none;stroke-opacity:1" />
        <path
           id="path22294"
           d="m 120.4958,-11.708191 c 0.50127,0.0322 0.8107,0.13648 1.05669,0.225421 0.246,0.08894 0.43475,0.133413 0.67456,0.337365 0.23981,0.203952 0.48271,0.355766 0.41309,0.846479 -0.0696,0.4907119 0.0835,0.5091137 -0.34037,0.8572127 -0.42392,0.3480991 -0.29087,0.4002373 -0.9515,0.7314679 -0.66063,0.3312308 -1.51465,0.5474509 -1.51465,0.5474509 0,0 -0.3543,0.3051617 -0.66992,-0.010734 -0.31561,-0.3158961 -0.4889,-0.292894 -0.59255,-0.6624616 -0.10366,-0.3695679 -0.24136,-0.7437358 -0.19185,-0.9967595 0.0495,-0.2530234 0.006,-0.1932184 0.11294,-0.5106474 0.10676,-0.31743 -0.0387,-0.466177 0.20423,-0.673196 0.2429,-0.207019 0.42237,-0.320497 0.66991,-0.440108 0.24754,-0.119611 0.98862,-0.207019 1.12942,-0.25149 z"
           style="fill:#8b1d1e;fill-opacity:1;stroke:#3f1111;stroke-width:0.2;stroke-linecap:butt;stroke-linejoin:miter;stroke-miterlimit:4;stroke-dasharray:none;stroke-opacity:1" />
        <path
           id="path22296"
           d="m 121.55868,-12.065491 c 0.46879,-0.392569 1.05516,-0.739135 1.44658,-0.766738 0.39143,-0.0276 0.40381,0.0506 0.84475,0.3481 0.44093,0.297494 0.58018,0.168682 0.67146,0.524448 0.0913,0.355767 -0.15162,0.375702 0.0634,0.71 0.21505,0.334297 0.15781,0.299028 0.25683,0.486112 0.099,0.187083 -0.0155,0.272958 -0.14234,0.533649 -0.12687,0.2606911 0.0279,0.2652914 -0.34502,0.5551183 -0.37286,0.289827 -0.40535,0.3128291 -0.755,0.5903884 -0.34966,0.277559 -0.0464,0.3036281 -0.41618,0.3066952 -0.36977,0.00307 -0.23053,-0.0092 -0.87878,-0.081275 -0.64826,-0.072073 -0.57863,0.093542 -0.8664,-0.018402 -0.28777,-0.1119439 -0.28313,0.3266302 -0.40071,-0.2974944 -0.11759,-0.6241248 -0.29705,-0.5290492 -0.13151,-0.9124185 0.16554,-0.383369 0.21969,-0.08588 0.20886,-0.552051 -0.0108,-0.466177 -0.2429,-0.24689 -0.017,-0.737602 0.22589,-0.490713 0.46105,-0.688531 0.46105,-0.688531 z"
           style="fill:#8b1d1e;fill-opacity:1;stroke:#3f1111;stroke-width:0.2;stroke-linecap:butt;stroke-linejoin:miter;stroke-miterlimit:4;stroke-dasharray:none;stroke-opacity:1" />
        <path
           id="path22298"
           d="m 126.04231,-7.5616717 c 0.50746,-0.087408 0.68074,0.1840169 1.10466,0.1410795 0.42392,-0.042937 0.59256,-0.041404 0.77976,0.2238875 0.18721,0.2652914 0.48271,0.237689 0.45332,0.6241248 -0.0294,0.3864359 -0.21196,0.5873213 -0.12068,0.9952257 0.0913,0.4079047 0.56161,0.6563278 -0.12532,0.9032174 -0.68693,0.2468896 -0.8958,0.2008854 -1.10311,0.3787685 -0.20732,0.1778834 -0.0619,0.2959608 -0.46879,0.4631097 -0.4069,0.167149 -0.50127,0.2760258 -0.79833,0.1502807 -0.29705,-0.125745 -0.48116,0.087408 -0.75346,-0.3358311 -0.27229,-0.4232394 -0.35893,0.021468 -0.42856,-0.7468028 -0.0696,-0.7682715 -0.21969,-0.8388112 -0.0712,-1.1347723 0.14852,-0.2959608 0.2166,-0.4109714 0.41308,-0.7544699 0.19649,-0.3434988 -0.0217,-0.2652914 0.24136,-0.4186391 0.26301,-0.1533475 0.55697,-0.2484231 0.71787,-0.2622243 0.16091,-0.013801 0.30325,-0.2806261 0.30325,-0.2806261"
           style="fill:#8b1d1e;fill-opacity:1;stroke:#3f1111;stroke-width:0.2;stroke-linecap:butt;stroke-linejoin:miter;stroke-miterlimit:4;stroke-dasharray:none;stroke-opacity:1" />
      </g>
      <path
         sodipodi:nodetypes="csccscssscsscscsssscssccccsscc"
         style="fill:#3f1111;fill-opacity:1;stroke:none;stroke-width:0.344969px;stroke-linecap:butt;stroke-linejoin:miter;stroke-opacity:1"
         d="m 362.08903,284.09084 c 0.85984,-0.21427 1.00168,-0.3971 1.15728,-0.82018 0.1556,-0.42307 0.22063,-1.20124 0.22063,-1.20124 l 0.49525,-0.35295 c 0,0 0.70176,0.57015 0.76028,0.15022 0.0585,-0.4199 -0.0344,-0.90821 -0.0344,-0.90821 0,0 -0.53593,-0.17175 -0.0118,-0.47834 0.52403,-0.30656 0.72324,-0.11511 0.76311,-0.6803 0.0399,-0.56521 -0.48129,-0.87624 -0.15424,-1.14719 0.32708,-0.27099 0.57871,-0.30363 0.57871,-0.30363 0,0 0.31233,-0.13162 0.0708,-0.50468 -0.24155,-0.37301 -1.1088,-0.70272 -0.96287,-1.28322 0.14593,-0.58047 0.22006,-1.15783 0.22006,-1.15783 0,0 -0.89055,-0.9291 -1.02455,-1.37898 -0.134,-0.44989 -0.87129,-1.22786 -1.11192,-2.01969 -0.2407,-0.79181 -0.2113,-0.38818 -0.63294,-0.96983 -0.42166,-0.58166 -0.332,-0.20833 -0.91698,-0.84229 -0.58508,-0.63387 -0.56259,-0.5108 -0.61934,-1.02235 -0.0568,-0.51153 0.30123,-0.93494 -0.68096,-1.11812 -0.98221,-0.18321 -1.05135,0.28518 -1.15637,-0.3999 -0.10473,-0.68511 0.26298,-0.71289 -0.29384,-1.25699 -0.55684,-0.54409 -0.42993,-1.10741 -1.04241,-0.74117 -0.61248,0.36625 -0.41789,0.19743 -0.63598,0.54288 -0.21821,0.3454 -0.0349,0.36236 -0.48791,0.77783 -0.45315,0.41544 -0.0998,0.33924 -0.49058,0.64438 -0.3905,0.30537 -0.66906,0.63402 -0.3218,1.17899 0.34746,0.54544 1.35195,3.89145 1.37933,5.10745 0.0274,1.21599 1.18603,3.65845 1.6934,4.51647 0.50741,0.85803 3.51968,4.72942 3.51968,4.72942 z"
         id="path22302"
         inkscape:transform-center-x="-1.2191004"
         inkscape:transform-center-y="0.038096649" />
      <g
         transform="matrix(-1.0947235,-0.70819203,0.70819203,-1.0947235,495.57411,356.71586)"
         id="g22324"
         style="fill:#8b1d1e;fill-opacity:1;stroke:#3f1111;stroke-width:0.2;stroke-miterlimit:4;stroke-dasharray:none;stroke-opacity:1"
         inkscape:transform-center-x="2.5687402"
         inkscape:transform-center-y="1.2571971">
        <path
           style="fill:#8b1d1e;fill-opacity:1;stroke:#3f1111;stroke-width:0.2;stroke-linecap:butt;stroke-linejoin:miter;stroke-miterlimit:4;stroke-dasharray:none;stroke-opacity:1"
           d="m 119.27974,-8.0692523 c 0.47962,-0.1656155 1.30424,-0.2499567 1.51156,-0.1073434 0.20732,0.1426134 0.65444,0.1334125 0.90663,0.6532608 0.25218,0.5198483 0.58482,-0.8541462 0.62814,0.9139515 0.0433,1.7680977 -0.53377,1.9720502 -0.77358,2.0533243 -0.2398,0.081274 -0.20422,0.076674 -0.33418,0.1226781 -0.12996,0.046004 -0.0835,0.03527 -0.57244,0.046004 -0.4889,0.010734 -0.53996,0.1579481 -1.23772,-0.1134771 -0.69776,-0.2714252 -1.42182,-0.5290492 -1.4342,-0.6762628 -0.0124,-0.1472137 -0.0433,-0.345032 0.0634,-0.567386 0.10676,-0.222354 -0.0557,-0.061339 0.23672,-0.3480991 0.29241,-0.2867602 0.40999,-0.1441468 0.45795,-0.380302 0.048,-0.2361554 -0.29705,0.2545569 0.0495,-0.4738441 0.34656,-0.7284011 0.49818,-1.1225043 0.49818,-1.1225043 z"
           id="path22304" />
        <path
           style="fill:#8b1d1e;fill-opacity:1;stroke:#3f1111;stroke-width:0.2;stroke-linecap:butt;stroke-linejoin:miter;stroke-miterlimit:4;stroke-dasharray:none;stroke-opacity:1"
           d="m 117.57169,-9.4754498 c 0.35584,-0.013801 0.66682,0.1242116 0.96697,0.476911 0.30014,0.3526996 0.40535,0.6348592 0.54923,0.7376019 0.14389,0.102743 0.28932,0.2330884 0.43939,0.5137145 0.15008,0.2806261 0.31098,0.3296973 0.11604,0.7038655 -0.19494,0.3741681 -0.61267,0.7820726 -0.73335,0.8909494 -0.12067,0.1088768 -0.53686,0.2070193 -0.79987,0.1855507 -0.26302,-0.021468 -0.79369,-0.019936 -0.98089,-0.1257451 -0.18721,-0.1058098 -0.29705,-0.029136 -0.49199,-0.1947516 -0.19494,-0.1656154 -0.43011,-0.1870839 -0.47807,-0.312829 -0.048,-0.1257451 -0.15936,0.03527 -0.25064,-0.3971703 -0.0913,-0.43244 -0.1872,-0.015335 -0.11294,-0.657861 0.0743,-0.6425264 -0.0464,-0.5397836 0.17792,-0.7744053 0.22434,-0.2346219 0.63742,-0.7774723 1.04123,-0.8296105 0.4038,-0.052138 0.27849,-0.1441469 0.55697,-0.2162202 z"
           id="path22306" />
        <path
           style="fill:#8b1d1e;fill-opacity:1;stroke:#3f1111;stroke-width:0.2;stroke-linecap:butt;stroke-linejoin:miter;stroke-miterlimit:4;stroke-dasharray:none;stroke-opacity:1"
           d="m 122.04139,-6.9344801 c 0.46415,0.056739 0.75501,0.1656154 1.06599,0.174816 0.31097,0.0092 0.76429,0.4048377 0.91126,0.4646433 0.14698,0.059806 0.56007,0.2131531 0.56007,0.4876453 0,0.2744922 -0.12068,0.5903883 0.0356,0.8679474 0.15626,0.2775593 0.39761,0.2330884 0.50127,0.4217058 0.10366,0.1886175 0.0866,0.2867602 0.10985,0.4677103 0.0232,0.1809502 0.19339,0.2530235 -0.0356,0.499913 -0.22898,0.2468896 -0.48271,0.5888549 -0.48271,0.5888549 0,0 0.1671,0.2085527 -0.0108,0.5275156 -0.17792,0.318963 -0.56935,0.3910364 -0.83391,0.2760257 -0.26456,-0.1150107 -0.31716,-0.3312308 -0.88187,-0.7529366 -0.56471,-0.4217059 -0.48271,-0.4263065 -0.79988,-0.5428507 -0.31716,-0.1165439 -0.71013,-0.3910361 -0.71013,-0.3910361 l -0.24446,-0.5627857 c 0,0 -0.61266,-0.1058098 -0.35893,-0.6409931 0.25373,-0.535183 0.37441,-0.380302 0.57089,-0.7391352 0.19649,-0.3588335 0.37441,-0.6900643 0.3806,-0.8204097 0.006,-0.1303454 0.006,-0.380302 0.22279,-0.3266302 z"
           id="path22308" />
        <path
           style="fill:#8b1d1e;fill-opacity:1;stroke:#3f1111;stroke-width:0.2;stroke-linecap:butt;stroke-linejoin:miter;stroke-miterlimit:4;stroke-dasharray:none;stroke-opacity:1"
           d="m 125.65862,-3.8475933 c 0.65753,-0.1962848 1.17428,-0.0046 1.39397,0.062873 0.2197,0.067473 0.39762,0.119611 0.59256,0.2821593 0.19494,0.1625487 0.66682,0.6287252 0.63124,0.9415543 -0.0356,0.3128291 -0.27849,0.7836062 -0.23362,0.9798911 0.0449,0.196285 0.27384,0.2683583 -0.0557,0.4523754 -0.32954,0.18401712 -0.8633,0.24228922 -1.03813,0.33583122 -0.17483,0.093542 -0.63897,0.23155487 -0.63897,0.23155487 0,0 -0.64362,-0.39717025 -0.72252,-0.55358479 -0.0789,-0.1564146 -0.22124,-0.3020948 -0.50437,-0.5428505 -0.28313,-0.2407557 -0.48116,-0.1932179 -0.46414,-0.4155719 0.017,-0.222354 0.0402,-0.196285 0.0526,-0.412505 0.0124,-0.21622 0.0789,-0.3695678 0.34811,-0.7145998 0.2692,-0.345032 0.25218,-0.3204964 0.46878,-0.4738441 0.2166,-0.1533475 0.30169,-0.1640819 0.30169,-0.1640819 0,0 -0.36976,0.010734 -0.1315,-0.0092 z"
           id="path22310" />
        <path
           style="fill:#8b1d1e;fill-opacity:1;stroke:#3f1111;stroke-width:0.2;stroke-linecap:butt;stroke-linejoin:miter;stroke-miterlimit:4;stroke-dasharray:none;stroke-opacity:1"
           d="m 123.61793,-7.6858833 c -0.0449,-0.3572999 -0.1315,-0.7207337 -0.1315,-0.7207337"
           id="path22312" />
        <path
           style="fill:#8b1d1e;fill-opacity:1;stroke:#3f1111;stroke-width:0.2;stroke-linecap:butt;stroke-linejoin:miter;stroke-miterlimit:4;stroke-dasharray:none;stroke-opacity:1"
           d="m 123.28066,-9.7054711 c 0.47806,0.093542 0.60338,0.099676 0.77666,0.4738441 0.17328,0.374168 0.49045,0.4539089 0.42083,0.8909495 -0.0696,0.4370406 -0.0944,0.6992649 -0.32954,1.0611651 -0.23517,0.3619005 -0.50283,0.5581854 -0.50283,0.5581854 0,0 -0.36358,0.1671489 -0.48271,0.1518139 -0.11913,-0.015335 -0.88496,0.081275 -0.88496,0.081275 l -0.49664,-0.050605 -0.15935,-0.055205 c 0,0 -0.11604,-0.069006 -0.24909,-0.085875 -0.13306,-0.016867 -0.35585,-0.1778833 -0.44713,-0.3005613 -0.0913,-0.1226781 -0.78904,0.6808634 -0.31562,-0.5428504 0.47343,-1.2237138 0.63588,-1.3893292 0.8169,-1.5595449 0.18101,-0.170216 0.47342,-0.3741682 0.73025,-0.4615765 0.25683,-0.087408 0.94685,-0.03987 1.12323,-0.1610149 z"
           id="path22314" />
        <path
           style="fill:#8b1d1e;fill-opacity:1;stroke:#3f1111;stroke-width:0.2;stroke-linecap:butt;stroke-linejoin:miter;stroke-miterlimit:4;stroke-dasharray:none;stroke-opacity:1"
           d="m 123.72933,-8.822189 c 0.41928,-0.2453561 0.34037,-0.073607 0.68848,-0.3189629 0.3481,-0.2453563 0.63433,-0.3465655 0.79678,-0.3941035 0.16245,-0.047538 0.18875,-0.1702157 0.59101,-0.059805 0.40225,0.1104101 0.58482,-0.2054859 0.80761,0.2499564 0.22279,0.4554424 0.38369,0.8418782 0.45486,1.1976447 0.0712,0.3557664 0.37286,0.1702159 0.22588,0.5689197 -0.14698,0.3987036 -0.11294,0.7053988 -0.72716,1.015161 -0.61421,0.309762 -1.12632,0.3987036 -1.52239,0.4370406 -0.39607,0.038337 -0.62504,0.1042763 -0.74882,0.00767 -0.12377,-0.096609 -0.4827,0.1104103 -0.55542,-0.3864359 -0.0727,-0.4968462 -0.246,-0.670129 -0.18566,-0.9292865 0.0603,-0.2591575 0.0217,-0.1456801 0.0402,-0.4661765 0.0186,-0.3204967 -0.0897,-0.3680344 0.006,-0.5229154 0.0959,-0.154881 -0.0526,-0.2514901 0.12841,-0.3987038 z"
           id="path22316" />
        <path
           style="fill:#8b1d1e;fill-opacity:1;stroke:#3f1111;stroke-width:0.2;stroke-linecap:butt;stroke-linejoin:miter;stroke-miterlimit:4;stroke-dasharray:none;stroke-opacity:1"
           d="m 120.4958,-11.708191 c 0.50127,0.0322 0.8107,0.13648 1.05669,0.225421 0.246,0.08894 0.43475,0.133413 0.67456,0.337365 0.23981,0.203952 0.48271,0.355766 0.41309,0.846479 -0.0696,0.4907119 0.0835,0.5091137 -0.34037,0.8572127 -0.42392,0.3480991 -0.29087,0.4002373 -0.9515,0.7314679 -0.66063,0.3312308 -1.51465,0.5474509 -1.51465,0.5474509 0,0 -0.3543,0.3051617 -0.66992,-0.010734 -0.31561,-0.3158961 -0.4889,-0.292894 -0.59255,-0.6624616 -0.10366,-0.3695679 -0.24136,-0.7437358 -0.19185,-0.9967595 0.0495,-0.2530234 0.006,-0.1932184 0.11294,-0.5106474 0.10676,-0.31743 -0.0387,-0.466177 0.20423,-0.673196 0.2429,-0.207019 0.42237,-0.320497 0.66991,-0.440108 0.24754,-0.119611 0.98862,-0.207019 1.12942,-0.25149 z"
           id="path22318" />
        <path
           style="fill:#8b1d1e;fill-opacity:1;stroke:#3f1111;stroke-width:0.2;stroke-linecap:butt;stroke-linejoin:miter;stroke-miterlimit:4;stroke-dasharray:none;stroke-opacity:1"
           d="m 121.55868,-12.065491 c 0.46879,-0.392569 1.05516,-0.739135 1.44658,-0.766738 0.39143,-0.0276 0.40381,0.0506 0.84475,0.3481 0.44093,0.297494 0.58018,0.168682 0.67146,0.524448 0.0913,0.355767 -0.15162,0.375702 0.0634,0.71 0.21505,0.334297 0.15781,0.299028 0.25683,0.486112 0.099,0.187083 -0.0155,0.272958 -0.14234,0.533649 -0.12687,0.2606911 0.0279,0.2652914 -0.34502,0.5551183 -0.37286,0.289827 -0.40535,0.3128291 -0.755,0.5903884 -0.34966,0.277559 -0.0464,0.3036281 -0.41618,0.3066952 -0.36977,0.00307 -0.23053,-0.0092 -0.87878,-0.081275 -0.64826,-0.072073 -0.57863,0.093542 -0.8664,-0.018402 -0.28777,-0.1119439 -0.28313,0.3266302 -0.40071,-0.2974944 -0.11759,-0.6241248 -0.29705,-0.5290492 -0.13151,-0.9124185 0.16554,-0.383369 0.21969,-0.08588 0.20886,-0.552051 -0.0108,-0.466177 -0.2429,-0.24689 -0.017,-0.737602 0.22589,-0.490713 0.46105,-0.688531 0.46105,-0.688531 z"
           id="path22320" />
        <path
           style="fill:#8b1d1e;fill-opacity:1;stroke:#3f1111;stroke-width:0.2;stroke-linecap:butt;stroke-linejoin:miter;stroke-miterlimit:4;stroke-dasharray:none;stroke-opacity:1"
           d="m 126.04231,-7.5616717 c 0.50746,-0.087408 0.68074,0.1840169 1.10466,0.1410795 0.42392,-0.042937 0.59256,-0.041404 0.77976,0.2238875 0.18721,0.2652914 0.48271,0.237689 0.45332,0.6241248 -0.0294,0.3864359 -0.21196,0.5873213 -0.12068,0.9952257 0.0913,0.4079047 0.56161,0.6563278 -0.12532,0.9032174 -0.68693,0.2468896 -0.8958,0.2008854 -1.10311,0.3787685 -0.20732,0.1778834 -0.0619,0.2959608 -0.46879,0.4631097 -0.4069,0.167149 -0.50127,0.2760258 -0.79833,0.1502807 -0.29705,-0.125745 -0.48116,0.087408 -0.75346,-0.3358311 -0.27229,-0.4232394 -0.35893,0.021468 -0.42856,-0.7468028 -0.0696,-0.7682715 -0.21969,-0.8388112 -0.0712,-1.1347723 0.14852,-0.2959608 0.2166,-0.4109714 0.41308,-0.7544699 0.19649,-0.3434988 -0.0217,-0.2652914 0.24136,-0.4186391 0.26301,-0.1533475 0.55697,-0.2484231 0.71787,-0.2622243 0.16091,-0.013801 0.30325,-0.2806261 0.30325,-0.2806261"
           id="path22322" />
      </g>
      <path
         transform="scale(0.26458333)"
         d="m 1524.3867,674.22656 -245.4883,141.73242 v 283.46482 l 245.4883,141.7324 245.4883,-141.7324 V 815.95898 Z m 0,40.72071 207.6933,119.91015 v 239.82418 l -207.6933,119.9102 -207.6914,-119.9102 V 834.85742 Z"
         inkscape:transform-center-y="-7.7154899e-06"
         inkscape:transform-center-x="-8.5550826e-06"
         style="display:inline;opacity:1;fill:#a81800;fill-opacity:1;stroke:none;stroke-width:4.85329;stroke-linecap:round;stroke-linejoin:miter;stroke-miterlimit:4;stroke-dasharray:none;stroke-opacity:1;paint-order:markers stroke fill"
         id="path22326" />
      <g
         id="g22392"
         transform="matrix(-0.73736127,-0.1083869,0.1083869,-0.73736127,475.81627,305.86725)"
         inkscape:transform-center-x="0.70061189"
         inkscape:transform-center-y="4.4538717">
        <path
           style="fill:#9c9ca8;fill-opacity:1;stroke:#000000;stroke-width:0.1;stroke-linecap:butt;stroke-linejoin:miter;stroke-miterlimit:4;stroke-dasharray:none;stroke-opacity:1"
           d="m 101.47255,-15.734254 3.88588,-5.100694 5.87804,3.79299 c 0,0 0.91349,-1.066982 1.23184,-1.263246 0.31836,-0.196263 0.94522,-0.520478 1.50316,-0.176745 0.55793,0.343732 1.62677,1.167824 1.74382,1.563605 0.11706,0.395781 0.23303,0.959633 -0.0131,1.211198 -0.24615,0.251565 -0.50652,0.508551 -0.50652,0.508551 l -0.45182,-0.113854 0.13018,-0.845779 -0.77236,0.473853 -0.1816,-0.182168 0.0788,-1.046379 -1.07759,0.653851 -0.0941,-1.403124 -1.58192,2.081916 0.97147,-0.02277 -0.21224,1.252402 0.89708,-0.182167 c 0,0 0.2188,0.155059 0.26256,0.274336 0.0438,0.119276 0.0645,0.15289 0.0645,0.15289 l -0.28444,0.683129 0.91677,-0.187589 c 0,0 0.1827,0.01301 0.2735,0.147469 0.0908,0.134457 0.22427,0.193011 0.22427,0.193011 0,0 -0.002,0.539997 -0.22536,0.813248 -0.22318,0.273252 -1.0382,0.489033 -1.3664,0.496624 -0.3282,0.0076 -0.86645,-0.04446 -1.64647,-0.595298 -0.78002,-0.55084 -0.85222,-1.236138 -0.89051,-1.690472 -0.0383,-0.454335 0.12471,-1.164572 0.20458,-1.462763 0.0799,-0.298191 0.16628,-0.609394 0.16628,-0.609394 l -4.85516,-2.887574 -3.50188,4.225638 z"
           id="path22328" />
        <path
           style="fill:#8b1d1e;fill-opacity:1;stroke:#000000;stroke-width:0.1;stroke-linecap:butt;stroke-linejoin:miter;stroke-miterlimit:4;stroke-dasharray:none;stroke-opacity:1"
           d="m 96.467516,-15.664857 c 0.182697,0.09542 0.599511,0.232047 0.828156,0.178915 0.228645,-0.05313 0.564502,-0.484696 0.834721,-0.536744 0.270216,-0.05205 0.746104,0.193011 0.891606,0.384937 0.145503,0.191927 0.239586,0.226625 0.460574,0.234216 0.220988,0.0076 0.556847,0.172409 0.604977,0.265661 0.0481,0.09325 -0.318352,0.106264 -0.43322,0.284095 -0.114869,0.17783 -0.132374,0.387106 -0.09955,0.545418 0.03282,0.158313 0.05689,0.47819 0.05689,0.47819 l -3.118982,0.434817 -0.297569,0.256987 c 0,0 -0.160817,-0.349155 -0.17285,-0.525901 -0.01204,-0.176746 0.01312,-0.669032 0.10174,-0.877224 0.08861,-0.208191 0.142219,-0.474937 0.150971,-0.715659 0.0088,-0.240721 0.192543,-0.407708 0.192543,-0.407708 z"
           id="path22330" />
        <path
           style="fill:#71717f;fill-opacity:1;stroke:#000000;stroke-width:0.1;stroke-linecap:butt;stroke-linejoin:miter;stroke-miterlimit:4;stroke-dasharray:none;stroke-opacity:1"
           d="m 96.274092,-13.060154 -1.122332,-6.804809 c -0.382128,0.487318 -0.40954,0.845282 -0.427411,1.345436 l -1.262967,-2.112931 c 0.663,0.36025 1.037711,0.529761 1.624922,0.586917 0.16429,-0.519018 0.204069,-0.959482 0.140369,-1.634281 l 1.376958,2.26341 c -0.613781,-0.277709 -0.893343,-0.380217 -1.449794,-0.40349 z"
           id="path22332"
           sodipodi:nodetypes="ccccccccc" />
        <path
           style="fill:none;stroke:#000000;stroke-width:0.264583px;stroke-linecap:butt;stroke-linejoin:miter;stroke-opacity:1"
           d="m 90.577505,-17.235809 c -0.558578,-1.615372 -0.411476,-3.125828 0.843195,-4.471616"
           id="path22334"
           sodipodi:nodetypes="cc" />
        <path
           style="fill:none;stroke:#000000;stroke-width:0.264583px;stroke-linecap:butt;stroke-linejoin:miter;stroke-opacity:1"
           d="m 88.821494,-18.74935 c -0.14484,-1.034375 0.164638,-2.080644 1.112399,-3.143625"
           id="path22336"
           sodipodi:nodetypes="cc" />
        <path
           style="fill:none;stroke:#000000;stroke-width:0.264583px;stroke-linecap:butt;stroke-linejoin:miter;stroke-opacity:1"
           d="m 87.501779,-20.586454 c -0.09389,-0.458399 0.02553,-0.949445 0.491993,-1.493605"
           id="path22338"
           sodipodi:nodetypes="cc" />
        <path
           style="fill:none;stroke:#000000;stroke-width:0.264583px;stroke-linecap:butt;stroke-linejoin:miter;stroke-opacity:1"
           d="m 96.707295,-23.274637 c 1.796829,1.108666 1.766168,2.66616 1.74363,4.221659"
           id="path22340"
           sodipodi:nodetypes="cc" />
        <path
           style="fill:none;stroke:#000000;stroke-width:0.264583px;stroke-linecap:butt;stroke-linejoin:miter;stroke-opacity:1"
           d="m 98.314776,-23.819021 c 1.165881,1.006052 1.542773,2.036457 1.519298,3.07922"
           id="path22342"
           sodipodi:nodetypes="cc" />
        <path
           style="fill:none;stroke:#000000;stroke-width:0.264583px;stroke-linecap:butt;stroke-linejoin:miter;stroke-opacity:1"
           d="m 100.03365,-24.364938 c 0.45101,0.519759 0.62659,1.028883 0.76429,1.536543"
           id="path22344"
           sodipodi:nodetypes="cc" />
        <path
           style="fill:#8b1d1e;fill-opacity:1;stroke:#000000;stroke-width:0.1;stroke-linecap:butt;stroke-linejoin:miter;stroke-miterlimit:4;stroke-dasharray:none;stroke-opacity:1"
           d="m 99.303156,-15.64317 c 0.08315,-0.345902 0.156443,-0.687466 0.379616,-0.672286 0.223176,0.01518 0.486828,0.02277 0.710008,-0.148553 0.22317,-0.171324 0.66843,-0.08783 0.79752,0.0141 0.12909,0.101927 0.0449,0.211444 0.30304,0.21036 0.25818,-0.0011 0.58966,-0.225541 0.82268,-0.05313 0.23303,0.172409 0.41354,0.0033 0.44089,0.339396 0.0273,0.336142 0.0995,0.412045 0.0536,0.629996 -0.0459,0.217951 0.0558,0.320962 -0.1466,0.434817 -0.20239,0.113855 -0.29537,0.24289 -0.32491,0.362166 -0.0295,0.119277 -0.0547,0.269999 -0.0547,0.269999 l -0.17285,0.08566 -2.506351,0.239637 c 0,0 -0.350079,-0.288432 -0.469324,-0.561684 -0.119245,-0.273251 0.105024,-1.006259 0.167381,-1.150475 z"
           id="path22346" />
        <path
           style="fill:none;stroke:#71717f;stroke-width:0.264583px;stroke-linecap:butt;stroke-linejoin:miter;stroke-opacity:1"
           d="m 97.130559,-9.4510484 1.05732,-1.4814866 1.925131,1.2874419 1.50564,-1.7450289 1.40392,1.4209249"
           id="path22348"
           sodipodi:nodetypes="ccccc" />
        <path
           style="fill:#71717f;fill-opacity:1;stroke:#000000;stroke-width:0.1;stroke-linecap:butt;stroke-linejoin:miter;stroke-miterlimit:4;stroke-dasharray:none;stroke-opacity:1"
           d="m 96.79548,-11.25372 -0.04951,-0.461576 c 0,0 -0.782854,-0.46771 -0.772025,-0.774405 0.01082,-0.306695 0.19494,-0.742202 0.4332,-0.867947 0.238263,-0.125746 1.95095,-0.306696 2.226342,-0.368035 0.275391,-0.06134 3.313983,-0.50298 3.541413,-0.509114 0.22743,-0.0061 0.51366,-0.01534 0.68075,0.161015 0.16709,0.17635 0.55233,0.394104 0.47652,0.752937 -0.0758,0.358833 -0.0774,0.476911 -0.42392,0.663995 -0.34656,0.187084 -0.15471,0.668595 -0.15471,0.668595 z"
           id="path22350" />
        <path
           style="fill:#9c9ca8;fill-opacity:1;stroke:#000000;stroke-width:0.1;stroke-linecap:butt;stroke-linejoin:miter;stroke-miterlimit:4;stroke-dasharray:none;stroke-opacity:1"
           d="m 96.162698,-10.744605 7.215882,-0.782073 -0.008,-0.550518 -7.262302,0.854146 z"
           id="path22352" />
        <path
           style="fill:#8b1d1e;fill-opacity:1;stroke:#000000;stroke-width:0.1;stroke-linecap:butt;stroke-linejoin:miter;stroke-miterlimit:4;stroke-dasharray:none;stroke-opacity:1"
           d="m 112.81402,-14.952451 c -0.0142,-0.429396 -0.0317,-0.704816 0.22317,-0.827345 0.2549,-0.122529 0.66296,-0.04771 0.80737,-0.05422 0.14441,-0.0065 0.76908,0.461926 0.96053,0.497708 0.19145,0.03578 0.22208,0.08675 0.40806,0.18759 0.18598,0.100842 0.55247,0.25048 0.51418,0.555177 -0.0383,0.304697 0.01,0.574696 -0.14769,0.712406 -0.15754,0.13771 -0.46276,0.377347 -0.56997,0.544334 -0.10722,0.166987 -0.1105,0.474937 -0.27569,0.455419 -0.16519,-0.01952 -0.31945,-0.179999 -0.43432,-0.381684 -0.11487,-0.201686 -0.24505,-0.233132 -0.38071,-0.356745 -0.13565,-0.123614 -0.419,-0.199517 -0.48026,-0.374095 -0.0613,-0.174577 -0.1827,-0.146384 -0.28554,-0.249396 -0.10283,-0.103011 -0.35992,-0.495539 -0.33913,-0.709152 z"
           id="path22354" />
        <g
           id="g22366"
           transform="translate(0.20422314,-0.32509689)">
          <path
             style="fill:none;stroke:#71717f;stroke-width:0.2;stroke-linecap:butt;stroke-linejoin:miter;stroke-miterlimit:4;stroke-dasharray:none;stroke-opacity:1"
             d="m 96.013014,-9.7777216 1.767898,1.2545712"
             id="path22356"
             sodipodi:nodetypes="cc" />
          <path
             style="fill:none;stroke:#71717f;stroke-width:0.2;stroke-linecap:butt;stroke-linejoin:miter;stroke-miterlimit:4;stroke-dasharray:none;stroke-opacity:1"
             d="m 96.806162,-10.096515 0.168473,2.0190246"
             id="path22358"
             sodipodi:nodetypes="cc" />
          <path
             style="fill:none;stroke:#71717f;stroke-width:0.2;stroke-linecap:butt;stroke-linejoin:miter;stroke-miterlimit:4;stroke-dasharray:none;stroke-opacity:1"
             d="m 97.500849,-9.9468772 -1.226371,1.6796291"
             id="path22360"
             sodipodi:nodetypes="cc" />
          <path
             style="fill:none;stroke:#71717f;stroke-width:0.2;stroke-linecap:butt;stroke-linejoin:miter;stroke-miterlimit:4;stroke-dasharray:none;stroke-opacity:1"
             d="m 97.928601,-9.2930257 -2.1136,0.3513233"
             id="path22362" />
          <circle
             style="opacity:1;fill:none;fill-opacity:1;stroke:#000000;stroke-width:0.479863;stroke-miterlimit:4;stroke-dasharray:none;stroke-opacity:1;paint-order:stroke markers fill"
             id="circle22364"
             cx="96.909225"
             cy="-9.1134834"
             r="1.0875591" />
        </g>
        <g
           id="g22378"
           transform="translate(3.1816268,-0.52197613)">
          <path
             style="fill:none;stroke:#71717f;stroke-width:0.2;stroke-linecap:butt;stroke-linejoin:miter;stroke-miterlimit:4;stroke-dasharray:none;stroke-opacity:1"
             d="m 96.013014,-9.7777216 1.767898,1.2545712"
             id="path22368"
             sodipodi:nodetypes="cc" />
          <path
             style="fill:none;stroke:#71717f;stroke-width:0.2;stroke-linecap:butt;stroke-linejoin:miter;stroke-miterlimit:4;stroke-dasharray:none;stroke-opacity:1"
             d="m 96.806162,-10.096515 0.168473,2.0190246"
             id="path22370"
             sodipodi:nodetypes="cc" />
          <path
             style="fill:none;stroke:#71717f;stroke-width:0.2;stroke-linecap:butt;stroke-linejoin:miter;stroke-miterlimit:4;stroke-dasharray:none;stroke-opacity:1"
             d="m 97.500849,-9.9468772 -1.226371,1.6796291"
             id="path22372"
             sodipodi:nodetypes="cc" />
          <path
             style="fill:none;stroke:#71717f;stroke-width:0.2;stroke-linecap:butt;stroke-linejoin:miter;stroke-miterlimit:4;stroke-dasharray:none;stroke-opacity:1"
             d="m 97.928601,-9.2930257 -2.1136,0.3513233"
             id="path22374" />
          <circle
             style="opacity:1;fill:none;fill-opacity:1;stroke:#000000;stroke-width:0.479863;stroke-miterlimit:4;stroke-dasharray:none;stroke-opacity:1;paint-order:stroke markers fill"
             id="circle22376"
             cx="96.909225"
             cy="-9.1134834"
             r="1.0875591" />
        </g>
        <g
           id="g22390"
           transform="translate(6.1610413,-0.84734566)">
          <path
             style="fill:none;stroke:#71717f;stroke-width:0.2;stroke-linecap:butt;stroke-linejoin:miter;stroke-miterlimit:4;stroke-dasharray:none;stroke-opacity:1"
             d="m 96.013014,-9.7777216 1.767898,1.2545712"
             id="path22380"
             sodipodi:nodetypes="cc" />
          <path
             style="fill:none;stroke:#71717f;stroke-width:0.2;stroke-linecap:butt;stroke-linejoin:miter;stroke-miterlimit:4;stroke-dasharray:none;stroke-opacity:1"
             d="m 96.806162,-10.096515 0.168473,2.0190246"
             id="path22382"
             sodipodi:nodetypes="cc" />
          <path
             style="fill:none;stroke:#71717f;stroke-width:0.2;stroke-linecap:butt;stroke-linejoin:miter;stroke-miterlimit:4;stroke-dasharray:none;stroke-opacity:1"
             d="m 97.500849,-9.9468772 -1.226371,1.6796291"
             id="path22384"
             sodipodi:nodetypes="cc" />
          <path
             style="fill:none;stroke:#71717f;stroke-width:0.2;stroke-linecap:butt;stroke-linejoin:miter;stroke-miterlimit:4;stroke-dasharray:none;stroke-opacity:1"
             d="m 97.928601,-9.2930257 -2.1136,0.3513233"
             id="path22386" />
          <circle
             style="opacity:1;fill:none;fill-opacity:1;stroke:#000000;stroke-width:0.479863;stroke-miterlimit:4;stroke-dasharray:none;stroke-opacity:1;paint-order:stroke markers fill"
             id="circle22388"
             cx="96.909225"
             cy="-9.1134834"
             r="1.0875591" />
        </g>
      </g>
      <path
         sodipodi:type="star"
         style="display:inline;opacity:0.369281;fill:none;fill-opacity:1;stroke:#000000;stroke-width:0.252429;stroke-linecap:round;stroke-linejoin:miter;stroke-miterlimit:4;stroke-dasharray:none;stroke-opacity:0.3;paint-order:markers stroke fill"
         id="path22394"
         sodipodi:sides="6"
         sodipodi:cx="403.3273"
         sodipodi:cy="253.38911"
         sodipodi:r1="74.854263"
         sodipodi:r2="64.825691"
         sodipodi:arg1="0.52359878"
         sodipodi:arg2="1.0471976"
         inkscape:flatsided="true"
         inkscape:rounded="0"
         inkscape:randomized="0"
         inkscape:transform-center-x="-1.3618847e-05"
         inkscape:transform-center-y="-1.1415755e-05"
         d="m 468.15299,290.81625 -64.82569,37.42713 -64.82569,-37.42713 0,-74.85427 64.82569,-37.42713 64.82569,37.42713 z" />
      <rect
         style="display:inline;fill:#ffffff;fill-opacity:1;fill-rule:evenodd;stroke:none;stroke-width:9.84872;stroke-linecap:square;stroke-linejoin:miter;stroke-miterlimit:4;stroke-dasharray:none;stroke-opacity:1"
         id="rect22396"
         width="70"
         height="70"
         x="368.3273"
         y="218.38918" />
      <g
         style="display:inline;opacity:1"
         transform="matrix(0.71428571,0,0,0.71428571,379.40724,3.4936332)"
         id="g22412">
        <rect
           style="opacity:1;fill:#000000;fill-opacity:1;stroke:none;stroke-width:0.263348;stroke-linecap:butt;stroke-linejoin:miter;stroke-miterlimit:4;stroke-dasharray:0.263348, 0.526696;stroke-dashoffset:0;stroke-opacity:1;paint-order:markers stroke fill"
           id="rect22398"
           width="70"
           height="70"
           x="-1.511905"
           y="314.85376" />
        <rect
           style="opacity:1;fill:#ffffff;fill-opacity:1;stroke:none;stroke-width:0.505272;stroke-linecap:butt;stroke-linejoin:miter;stroke-miterlimit:4;stroke-dasharray:0.505272, 1.01054;stroke-dashoffset:0;stroke-opacity:1;paint-order:markers stroke fill"
           id="rect22400"
           width="23.333801"
           height="11.666667"
           x="21.821434"
           y="349.56277" />
        <rect
           y="337.89426"
           x="33.48877"
           height="23.334"
           width="11.666667"
           id="rect22402"
           style="opacity:1;fill:#ffffff;fill-opacity:1;stroke:none;stroke-width:0.505274;stroke-linecap:butt;stroke-linejoin:miter;stroke-miterlimit:4;stroke-dasharray:0.505274, 1.01055;stroke-dashoffset:0;stroke-opacity:1;paint-order:markers stroke fill" />
        <rect
           style="opacity:1;fill:#ffffff;fill-opacity:1;stroke:none;stroke-width:0.505272;stroke-linecap:butt;stroke-linejoin:miter;stroke-miterlimit:4;stroke-dasharray:0.505272, 1.01054;stroke-dashoffset:0;stroke-opacity:1;paint-order:markers stroke fill"
           id="rect22404"
           width="23.333801"
           height="11.666667"
           x="33.488537"
           y="337.89459" />
        <rect
           y="349.56253"
           x="21.821667"
           height="23.333801"
           width="11.666667"
           id="rect22406"
           style="opacity:1;fill:#ffffff;fill-opacity:1;stroke:none;stroke-width:0.505272;stroke-linecap:butt;stroke-linejoin:miter;stroke-miterlimit:4;stroke-dasharray:0.505272, 1.01054;stroke-dashoffset:0;stroke-opacity:1;paint-order:markers stroke fill" />
        <rect
           y="337.89563"
           x="10.15465"
           height="11.666667"
           width="11.6669"
           id="rect22408"
           style="opacity:1;fill:#ffffff;fill-opacity:1;stroke:none;stroke-width:0.357281;stroke-linecap:butt;stroke-linejoin:miter;stroke-miterlimit:4;stroke-dasharray:0.357281, 0.71456;stroke-dashoffset:0;stroke-opacity:1;paint-order:markers stroke fill" />
        <rect
           style="opacity:1;fill:#ffffff;fill-opacity:1;stroke:none;stroke-width:0.357281;stroke-linecap:butt;stroke-linejoin:miter;stroke-miterlimit:4;stroke-dasharray:0.357281, 0.71456;stroke-dashoffset:0;stroke-opacity:1;paint-order:markers stroke fill"
           id="rect22410"
           width="11.6669"
           height="11.666667"
           x="21.821869"
           y="326.2276" />
      </g>
    </g>
  </g>
</svg>
