<?xml version="1.0" encoding="UTF-8" standalone="no"?>
<!-- Created with Inkscape (http://www.inkscape.org/) -->

<svg
   width="150.00014mm"
   height="129.90422mm"
   viewBox="0 0 150.00014 129.90422"
   version="1.1"
   id="svg7714"
   inkscape:version="1.1.1 (3bf5ae0d25, 2021-09-20)"
   sodipodi:docname="blue.svg"
   xmlns:inkscape="http://www.inkscape.org/namespaces/inkscape"
   xmlns:sodipodi="http://sodipodi.sourceforge.net/DTD/sodipodi-0.dtd"
   xmlns="http://www.w3.org/2000/svg"
   xmlns:svg="http://www.w3.org/2000/svg">
  <sodipodi:namedview
     id="namedview7716"
     pagecolor="#ffffff"
     bordercolor="#666666"
     borderopacity="1.0"
     inkscape:pageshadow="2"
     inkscape:pageopacity="0.0"
     inkscape:pagecheckerboard="0"
     inkscape:document-units="mm"
     showgrid="false"
     inkscape:zoom="0.77771465"
     inkscape:cx="-194.15862"
     inkscape:cy="498.89764"
     inkscape:window-width="3840"
     inkscape:window-height="2066"
     inkscape:window-x="-11"
     inkscape:window-y="-11"
     inkscape:window-maximized="1"
     inkscape:current-layer="layer1"
     fit-margin-top="0"
     fit-margin-left="0"
     fit-margin-right="0"
     fit-margin-bottom="0" />
  <defs
     id="defs7711" />
  <g
     inkscape:label="Calque 1"
     inkscape:groupmode="layer"
     id="layer1"
     transform="translate(-8.3504484,-16.357159)">
    <g
       style="display:inline"
       transform="rotate(-90,157.29896,327.33762)"
       id="g20749">
      <g
         id="g20747">
        <path
           inkscape:transform-center-y="-1.6113797e-05"
           inkscape:transform-center-x="-1.3655894e-05"
           inkscape:randomized="0"
           inkscape:rounded="0"
           inkscape:flatsided="true"
           sodipodi:arg2="1.0471976"
           sodipodi:arg1="0.52359878"
           sodipodi:r2="64.951912"
           sodipodi:r1="75"
           sodipodi:cy="253.38911"
           sodipodi:cx="403.3273"
           sodipodi:sides="6"
           id="path20563"
           style="display:inline;opacity:1;fill:#d1efff;fill-opacity:1;stroke:none;stroke-width:1.51777;stroke-linecap:round;stroke-linejoin:miter;stroke-miterlimit:4;stroke-dasharray:none;stroke-opacity:1;paint-order:markers stroke fill"
           sodipodi:type="star"
           d="m 468.27921,290.88911 -64.95191,37.5 -64.9519,-37.5 0,-75 64.9519,-37.5 64.95191,37.5 z" />
        <circle
           r="48.249397"
           cy="253.38911"
           cx="403.3273"
           id="circle20565"
           style="font-variation-settings:normal;vector-effect:none;fill:#6ad6fe;fill-opacity:1;fill-rule:evenodd;stroke:#000000;stroke-width:0.142278;stroke-linecap:square;stroke-linejoin:round;stroke-miterlimit:4;stroke-dasharray:none;stroke-dashoffset:0;stroke-opacity:1;stop-color:#000000" />
        <g
           transform="matrix(1.4227785,0,0,1.4227785,-357.95823,315.60135)"
           id="g20571">
          <path
             style="fill:#6ad6fe;fill-opacity:1;stroke:#000000;stroke-width:0.1;stroke-linecap:butt;stroke-linejoin:miter;stroke-miterlimit:4;stroke-dasharray:none;stroke-opacity:1"
             d="m 508.14853,-64.357688 c 0.13359,-0.267182 1.03534,-1.135526 1.16893,-1.536301 0.13359,-0.400775 -0.2004,-1.669894 0.16698,-2.504839 0.36737,-0.834949 0.86833,-1.035336 1.06873,-1.168927 0.2004,-0.133591 -0.1002,0.333978 -0.1002,0.500968 0,0.166989 -0.0334,0.701354 0.13359,0.801549 0.16701,0.100193 0.60119,0.100193 0.76817,-0.0334 0.16697,-0.133591 0.86833,-0.601162 1.00192,-0.734753 0.13361,-0.133591 0.93514,-0.701355 0.93514,-0.701355"
             id="path20567" />
          <path
             style="fill:#a3e6ff;fill-opacity:1;stroke:none;stroke-width:0.264583px;stroke-linecap:butt;stroke-linejoin:miter;stroke-opacity:1"
             d="m 510.55317,-69.514444 c 0,0 -0.58158,0.408876 -0.68178,0.575865 -0.1002,0.16699 -0.25741,0.768152 -0.15721,0.901743 0.1002,0.133593 0.27098,-0.568626 0.38693,-0.782332 0.11403,-0.210167 0.3657,-0.434171 0.3657,-0.434171 z"
             id="path20569"
             sodipodi:nodetypes="cssscc" />
        </g>
        <g
           transform="matrix(1.1924818,0.77607078,-0.77607078,1.1924818,-271.06237,-108.34894)"
           id="g20589">
          <path
             style="fill:#6ad6fe;fill-opacity:1;stroke:#000000;stroke-width:0.1;stroke-linecap:butt;stroke-linejoin:miter;stroke-miterlimit:4;stroke-dasharray:none;stroke-opacity:1"
             d="m 509.51476,-59.078407 c 0.19465,-0.389316 0.9733,-1.362599 1.16795,-1.946571 0.19465,-0.58397 0.19465,-1.167943 0.48665,-1.751912 0.29197,-0.583973 0.87595,-0.778629 1.3626,-0.875959 0.48662,-0.09733 0.97327,-0.09733 1.36258,-0.681299 0.38933,-0.58397 1.07064,-1.654583 1.16795,-2.335885 0.0973,-0.681299 0.58396,-1.459926 1.16795,-1.946569 0.58396,-0.486642 1.65457,-0.09733 2.43321,-0.681299"
             id="path20573" />
          <g
             id="g20587">
            <path
               id="path20575"
               d="m 512.42346,-61.385277 c 0.32935,-0.570439 0.45638,-2.846322 0.87476,-3.264715 0.41841,-0.418396 2.55204,-0.241163 3.15672,-0.845841"
               style="fill:#6ad6fe;fill-opacity:1;stroke:#000000;stroke-width:0.1;stroke-linecap:butt;stroke-linejoin:miter;stroke-miterlimit:4;stroke-dasharray:none;stroke-opacity:1" />
            <path
               sodipodi:nodetypes="csscsc"
               id="path20577"
               d="m 513.70103,-64.511191 c 0.26718,-0.06679 0.51936,-0.131986 0.66152,-0.212196 0.168,-0.09479 0.2183,-0.144934 0.0489,-0.162589 -0.32048,-0.0334 -0.93477,0.174747 -0.93477,0.174747 0,0 -0.4126,0.331953 -0.21221,0.365349 0.2004,0.0334 0.43656,-0.165311 0.43656,-0.165311 z"
               style="fill:#a3e6ff;fill-opacity:1;stroke:none;stroke-width:0.264583px;stroke-linecap:butt;stroke-linejoin:miter;stroke-opacity:1" />
            <path
               sodipodi:nodetypes="sscccs"
               id="path20579"
               d="m 516.03042,-68.332034 c 0.16697,-0.233804 0.40292,-0.377631 0.61869,-0.437877 0.40114,-0.112001 0.45747,-0.119757 0.22368,0.08063 -0.35602,0.185467 -0.50108,0.477318 -0.78534,0.841024 0.0334,-0.200387 -0.11606,-0.401121 -0.11606,-0.401121 z"
               style="fill:#a3e6ff;fill-opacity:1;stroke:none;stroke-width:0.264583px;stroke-linecap:butt;stroke-linejoin:miter;stroke-opacity:1" />
            <g
               id="g20585">
              <g
                 id="g20583">
                <path
                   sodipodi:nodetypes="ccsscc"
                   id="path20581"
                   d="m 511.72413,-63.286929 c 0.1621,-0.151317 0.53435,-0.239518 0.53435,-0.239518 0,0 -0.0782,0.210283 -0.21052,0.365351 -0.0832,0.09745 -0.43618,0.505022 -0.60319,0.672011 -0.16698,0.166989 -0.0489,-0.346134 -0.0155,-0.513123 0.096,-0.104485 0.15715,-0.231388 0.29487,-0.284721 z"
                   style="fill:#a3e6ff;fill-opacity:1;stroke:none;stroke-width:0.264583px;stroke-linecap:butt;stroke-linejoin:miter;stroke-opacity:1" />
              </g>
            </g>
          </g>
        </g>
        <g
           transform="matrix(0.36824216,1.3742985,-1.3742985,0.36824216,145.87545,-465.77615)"
           id="g20607">
          <path
             style="fill:#00990b;fill-opacity:1;stroke:none;stroke-width:0.1;stroke-linecap:butt;stroke-linejoin:miter;stroke-miterlimit:4;stroke-dasharray:none;stroke-opacity:1"
             d="m 500.65619,-60.551058 -0.99187,-0.472317 c 0,0 0,-0.236159 0.33063,-0.377854 0.33059,-0.141695 0.87378,-0.212542 0.87378,-0.212542 z"
             id="path20591"
             sodipodi:nodetypes="ccscc" />
          <path
             style="fill:#a3e6ff;fill-opacity:1;stroke:none;stroke-width:0.264583px;stroke-linecap:butt;stroke-linejoin:miter;stroke-opacity:1"
             d="m 502.23843,-51.954885 -0.0945,0.519548 c 0,0 0.14171,0.354236 0.33062,0.259771 0.18894,-0.09446 0.85019,-0.448702 1.0391,-0.63763 0.18894,-0.188926 0.89742,-0.802939 1.06273,-1.086329 0.16531,-0.28339 0.63762,-0.850171 0.80293,-1.157175 0.16531,-0.307007 0.42509,-0.897405 0.42509,-1.157178 0,-0.259774 -0.1181,-0.708475 -0.1181,-1.20441 0,-0.495933 0.28344,-1.086328 0.33063,-1.464182 0.0472,-0.377855 0.33062,-1.015482 0.37785,-1.322489 0.0473,-0.307006 0.14171,-0.236159 0,-0.614013 -0.14168,-0.377851 -0.59039,-0.543163 -0.70848,-0.519549 -0.11805,0.02363 -0.30699,0.330623 -0.35422,0.425087 -1.06934,2.64229 -2.03505,5.311939 -3.09369,7.958549 z"
             id="path20593"
             sodipodi:nodetypes="ccsssssssssscc" />
          <path
             style="fill:#fffce0;fill-opacity:1;stroke:#000000;stroke-width:0.1;stroke-linecap:butt;stroke-linejoin:miter;stroke-miterlimit:4;stroke-dasharray:none;stroke-opacity:1"
             d="m 502.1912,-52.143813 c 0.0472,-0.212542 -0.51954,-2.007349 0.51956,-4.439782 1.0391,-2.432434 1.91289,-2.267122 2.31434,-2.881133 0.40148,-0.614013 0.37788,-0.04723 0.40148,0.28339 0.0235,0.330621 -0.33063,2.574129 -0.44871,2.999214 -0.11808,0.425085 -0.61399,2.456047 -0.89739,2.833901 -0.28339,0.377855 -1.10995,1.251641 -1.39335,1.464183 -0.28339,0.212543 -0.4487,0.35424 -0.49593,-0.259773 z"
             id="path20595" />
          <path
             style="fill:#995200;fill-opacity:1;stroke:none;stroke-width:0.1;stroke-linecap:butt;stroke-linejoin:miter;stroke-miterlimit:4;stroke-dasharray:none;stroke-opacity:1"
             d="m 503.32478,-57.221222 c 0,0 -1.39335,-1.015482 -1.98374,-2.739441 -0.59039,-1.723956 -0.73209,-0.944632 -0.73209,-0.944632 l -10e-6,0.236158 c 0,0 0.23616,1.133562 0.77933,1.936501 0.54316,0.802939 1.62949,2.10181 1.62949,2.10181 0,0 0.25977,0.212543 0.30702,-0.590396 z"
             id="path20597"
             sodipodi:nodetypes="csccscc" />
          <path
             style="fill:#00990b;fill-opacity:1;stroke:none;stroke-width:0.1;stroke-linecap:butt;stroke-linejoin:miter;stroke-miterlimit:4;stroke-dasharray:none;stroke-opacity:1"
             d="m 500.51449,-60.787218 c 0,0 0.61401,0.921019 1.81842,0.755708 1.20441,-0.165309 0.70847,-0.118078 0.70847,-0.118078 0,0 -0.30702,-0.708475 -1.06272,-0.802939 -0.7557,-0.09446 -1.46417,0.165309 -1.46417,0.165309 z"
             id="path20599"
             sodipodi:nodetypes="cscsc" />
          <path
             style="fill:#00990b;fill-opacity:1;stroke:none;stroke-width:0.1;stroke-linecap:butt;stroke-linejoin:miter;stroke-miterlimit:4;stroke-dasharray:none;stroke-opacity:1"
             d="m 500.72701,-60.574672 c 0,0 0.43916,-0.367619 0.92103,-0.472319 0.51393,-0.111665 1.27527,0.141693 1.27527,0.141693 0,0 -0.40145,-0.377853 -0.7557,-0.543165 -0.35425,-0.165309 -0.77936,-0.141695 -1.06273,-0.04724 -0.28339,0.09446 -0.66125,0.684861 -0.66125,0.684861 z"
             id="path20601"
             sodipodi:nodetypes="cscsscc" />
          <path
             style="fill:#00990b;fill-opacity:1;stroke:none;stroke-width:0.1;stroke-linecap:butt;stroke-linejoin:miter;stroke-miterlimit:4;stroke-dasharray:none;stroke-opacity:1"
             d="m 500.65617,-60.739985 c 0,0 0.47233,0.354237 0.66124,0.755708 0.18894,0.401468 0.0709,1.180793 0.0709,1.180793 0,0 -0.80293,-0.212545 -1.10996,-0.802941 -0.30699,-0.590394 -0.14168,-0.826553 -0.0235,-1.015482 0.11808,-0.188925 0.40145,-0.118078 0.40145,-0.118078 z"
             id="path20603" />
          <path
             style="fill:#00990b;fill-opacity:1;stroke:none;stroke-width:0.1;stroke-linecap:butt;stroke-linejoin:miter;stroke-miterlimit:4;stroke-dasharray:none;stroke-opacity:1"
             d="m 500.77425,-60.763601 c 0,0 -0.66123,0.09445 -0.73208,0.590395 -0.0709,0.495935 -0.0237,0.614013 0.0236,0.991866 0.0529,0.422443 0.21259,0.92102 0.21259,0.92102 -0.46348,-0.298686 -0.97964,-0.942021 -0.96827,-1.487798 0.0115,-0.402001 3e-5,-0.850172 0.66125,-1.109946 0.14376,0.04042 0.67041,0.0255 0.80286,0.09446 z"
             id="path20605"
             sodipodi:nodetypes="csscccc" />
        </g>
        <g
           transform="matrix(1.3424837,-0.47120717,0.47120717,1.3424837,-291.00785,570.26683)"
           id="g20623">
          <path
             style="fill:#a3e6ff;fill-opacity:1;stroke:none;stroke-width:0.264583px;stroke-linecap:butt;stroke-linejoin:miter;stroke-opacity:1"
             d="m 501.52995,-48.05827 c 0,0 0.33063,0.543165 0.33063,0.802938 0,0.259776 0.16531,1.228027 0.11808,1.558648 -0.0472,0.330623 0,0.991867 0.0236,1.25164 0.0235,0.259776 0.23614,0.991868 0.21254,1.180793 -0.0236,0.188926 -0.2834,0.944634 -0.25977,1.157177 0.0236,0.212542 -0.0709,0.590396 0,0.944634 0.0708,0.35424 0.0472,0.68486 -0.0709,0.732091 -0.11808,0.04723 -0.4723,-0.09446 -0.49593,-0.307004 -0.0236,-0.212545 0.0236,-0.330623 0,-0.590396 -0.0236,-0.259776 -0.0945,-0.732092 -0.0945,-1.062715 0,-0.330621 0.0472,-0.590397 0.0236,-0.708475 -0.0236,-0.118081 -0.0472,-0.236159 -0.0472,-0.236159 z"
             id="path20609" />
          <g
             id="g20621"
             transform="translate(0.09446343,0.25977443)">
            <path
               id="path20611"
               d="m 499.71155,-47.444257 -5.17189,-0.802939"
               style="fill:#a68743;fill-opacity:1;stroke:#a68743;stroke-width:0.264583px;stroke-linecap:butt;stroke-linejoin:miter;stroke-opacity:1" />
            <path
               id="path20613"
               d="m 496.19278,-49.711379 -1.48781,3.660457"
               style="fill:#a68743;fill-opacity:1;stroke:#a68743;stroke-width:0.264583px;stroke-linecap:butt;stroke-linejoin:miter;stroke-opacity:1" />
            <path
               id="path20615"
               d="m 499.64069,-45.318831 -1.65312,-0.09446 -0.23614,2.337969 1.67672,0.165309 z"
               style="fill:#a68743;fill-opacity:1;stroke:#000000;stroke-width:0.1;stroke-linecap:butt;stroke-linejoin:miter;stroke-miterlimit:4;stroke-dasharray:none;stroke-opacity:1" />
            <path
               sodipodi:nodetypes="csccscc"
               id="path20617"
               d="m 496.3368,-49.488589 c 0,0 0.91142,-0.305618 1.45854,-0.211617 0.54713,0.094 1.70219,0.822505 1.70219,0.822505 l -0.15198,3.666018 c 0,0 -1.27665,-1.010505 -2.58366,-1.104507 -1.30706,-0.094 -1.82381,0.211503 -1.82381,0.211503 z"
               style="fill:#ffffff;fill-opacity:1;stroke:#000000;stroke-width:0.113172;stroke-linecap:butt;stroke-linejoin:miter;stroke-miterlimit:4;stroke-dasharray:none;stroke-opacity:1" />
            <path
               id="path20619"
               d="m 499.87686,-49.593301 c 0,0 1.36972,0.543166 1.53504,1.4878 0.16531,0.944634 0.0235,3.778535 -0.0709,4.345318 -0.0945,0.56678 -0.96824,1.180793 -1.51141,1.440566 -0.54319,0.259776 -0.51956,0.236159 -0.51956,0.236159 z"
               style="fill:#a68743;fill-opacity:1;stroke:#000000;stroke-width:0.1;stroke-linecap:butt;stroke-linejoin:miter;stroke-miterlimit:4;stroke-dasharray:none;stroke-opacity:1" />
          </g>
        </g>
        <g
           inkscape:transform-center-y="-0.48294873"
           inkscape:transform-center-x="0.40213645"
           id="g20639"
           transform="matrix(-1.3647509,-0.40218603,0.40218603,-1.3647509,1145.7672,412.40281)">
          <path
             id="path20625"
             d="m 501.52995,-48.05827 c 0,0 0.33063,0.543165 0.33063,0.802938 0,0.259776 0.16531,1.228027 0.11808,1.558648 -0.0472,0.330623 0,0.991867 0.0236,1.25164 0.0235,0.259776 0.23614,0.991868 0.21254,1.180793 -0.0236,0.188926 -0.2834,0.944634 -0.25977,1.157177 0.0236,0.212542 -0.0709,0.590396 0,0.944634 0.0708,0.35424 0.0472,0.68486 -0.0709,0.732091 -0.11808,0.04723 -0.4723,-0.09446 -0.49593,-0.307004 -0.0236,-0.212545 0.0236,-0.330623 0,-0.590396 -0.0236,-0.259776 -0.0945,-0.732092 -0.0945,-1.062715 0,-0.330621 0.0472,-0.590397 0.0236,-0.708475 -0.0236,-0.118081 -0.0472,-0.236159 -0.0472,-0.236159 z"
             style="fill:#a3e6ff;fill-opacity:1;stroke:none;stroke-width:0.264583px;stroke-linecap:butt;stroke-linejoin:miter;stroke-opacity:1" />
          <g
             transform="translate(0.09446343,0.25977443)"
             id="g20637">
            <path
               style="fill:#a68743;fill-opacity:1;stroke:#a68743;stroke-width:0.264583px;stroke-linecap:butt;stroke-linejoin:miter;stroke-opacity:1"
               d="m 499.71155,-47.444257 -5.17189,-0.802939"
               id="path20627" />
            <path
               style="fill:#a68743;fill-opacity:1;stroke:#a68743;stroke-width:0.264583px;stroke-linecap:butt;stroke-linejoin:miter;stroke-opacity:1"
               d="m 496.19278,-49.711379 -1.48781,3.660457"
               id="path20629" />
            <path
               style="fill:#a68743;fill-opacity:1;stroke:#000000;stroke-width:0.1;stroke-linecap:butt;stroke-linejoin:miter;stroke-miterlimit:4;stroke-dasharray:none;stroke-opacity:1"
               d="m 499.64069,-45.318831 -1.65312,-0.09446 -0.23614,2.337969 1.67672,0.165309 z"
               id="path20631" />
            <path
               style="fill:#ffffff;fill-opacity:1;stroke:#000000;stroke-width:0.113172;stroke-linecap:butt;stroke-linejoin:miter;stroke-miterlimit:4;stroke-dasharray:none;stroke-opacity:1"
               d="m 496.3368,-49.488589 c 0,0 0.91142,-0.305618 1.45854,-0.211617 0.54713,0.094 1.70219,0.822505 1.70219,0.822505 l -0.15198,3.666018 c 0,0 -1.27665,-1.010505 -2.58366,-1.104507 -1.30706,-0.094 -1.82381,0.211503 -1.82381,0.211503 z"
               id="path20633"
               sodipodi:nodetypes="csccscc" />
            <path
               style="fill:#a68743;fill-opacity:1;stroke:#000000;stroke-width:0.1;stroke-linecap:butt;stroke-linejoin:miter;stroke-miterlimit:4;stroke-dasharray:none;stroke-opacity:1"
               d="m 499.87686,-49.593301 c 0,0 1.36972,0.543166 1.53504,1.4878 0.16531,0.944634 0.0235,3.778535 -0.0709,4.345318 -0.0945,0.56678 -0.96824,1.180793 -1.51141,1.440566 -0.54319,0.259776 -0.51956,0.236159 -0.51956,0.236159 z"
               id="path20635" />
          </g>
        </g>
        <g
           id="g20645"
           transform="matrix(-0.83967376,1.1485846,-1.1485846,-0.83967376,798.51433,-400.19687)">
          <path
             id="path20641"
             d="m 508.14853,-64.357688 c 0.13359,-0.267182 1.03534,-1.135526 1.16893,-1.536301 0.13359,-0.400775 -0.2004,-1.669894 0.16698,-2.504839 0.36737,-0.834949 0.86833,-1.035336 1.06873,-1.168927 0.2004,-0.133591 -0.1002,0.333978 -0.1002,0.500968 0,0.166989 -0.0334,0.701354 0.13359,0.801549 0.16701,0.100193 0.60119,0.100193 0.76817,-0.0334 0.16697,-0.133591 0.86833,-0.601162 1.00192,-0.734753 0.13361,-0.133591 0.93514,-0.701355 0.93514,-0.701355"
             style="fill:#6ad6fe;fill-opacity:1;stroke:#000000;stroke-width:0.1;stroke-linecap:butt;stroke-linejoin:miter;stroke-miterlimit:4;stroke-dasharray:none;stroke-opacity:1" />
          <path
             sodipodi:nodetypes="cssscc"
             id="path20643"
             d="m 510.55317,-69.514444 c 0,0 -0.58158,0.408876 -0.68178,0.575865 -0.1002,0.16699 -0.25741,0.768152 -0.15721,0.901743 0.1002,0.133593 0.27098,-0.568626 0.38693,-0.782332 0.11403,-0.210167 0.3657,-0.434171 0.3657,-0.434171 z"
             style="fill:#a3e6ff;fill-opacity:1;stroke:none;stroke-width:0.264583px;stroke-linecap:butt;stroke-linejoin:miter;stroke-opacity:1" />
        </g>
        <g
           inkscape:transform-center-y="-1.8802753"
           inkscape:transform-center-x="-0.56513439"
           id="g20663"
           transform="matrix(-0.96467263,1.0458037,-1.0458037,-0.96467263,871.18034,-357.11799)">
          <path
             id="path20647"
             d="m 509.51476,-59.078407 c 0.19465,-0.389316 0.9733,-1.362599 1.16795,-1.946571 0.19465,-0.58397 0.19465,-1.167943 0.48665,-1.751912 0.29197,-0.583973 0.87595,-0.778629 1.3626,-0.875959 0.48662,-0.09733 0.97327,-0.09733 1.36258,-0.681299 0.38933,-0.58397 1.07064,-1.654583 1.16795,-2.335885 0.0973,-0.681299 0.58396,-1.459926 1.16795,-1.946569 0.58396,-0.486642 1.65457,-0.09733 2.43321,-0.681299"
             style="fill:#6ad6fe;fill-opacity:1;stroke:#000000;stroke-width:0.1;stroke-linecap:butt;stroke-linejoin:miter;stroke-miterlimit:4;stroke-dasharray:none;stroke-opacity:1" />
          <g
             id="g20661">
            <path
               style="fill:#6ad6fe;fill-opacity:1;stroke:#000000;stroke-width:0.1;stroke-linecap:butt;stroke-linejoin:miter;stroke-miterlimit:4;stroke-dasharray:none;stroke-opacity:1"
               d="m 512.42346,-61.385277 c 0.32935,-0.570439 0.45638,-2.846322 0.87476,-3.264715 0.41841,-0.418396 2.55204,-0.241163 3.15672,-0.845841"
               id="path20649" />
            <path
               style="fill:#a3e6ff;fill-opacity:1;stroke:none;stroke-width:0.264583px;stroke-linecap:butt;stroke-linejoin:miter;stroke-opacity:1"
               d="m 513.70103,-64.511191 c 0.26718,-0.06679 0.51936,-0.131986 0.66152,-0.212196 0.168,-0.09479 0.2183,-0.144934 0.0489,-0.162589 -0.32048,-0.0334 -0.93477,0.174747 -0.93477,0.174747 0,0 -0.4126,0.331953 -0.21221,0.365349 0.2004,0.0334 0.43656,-0.165311 0.43656,-0.165311 z"
               id="path20651"
               sodipodi:nodetypes="csscsc" />
            <path
               style="fill:#a3e6ff;fill-opacity:1;stroke:none;stroke-width:0.264583px;stroke-linecap:butt;stroke-linejoin:miter;stroke-opacity:1"
               d="m 516.03042,-68.332034 c 0.16697,-0.233804 0.40292,-0.377631 0.61869,-0.437877 0.40114,-0.112001 0.45747,-0.119757 0.22368,0.08063 -0.35602,0.185467 -0.50108,0.477318 -0.78534,0.841024 0.0334,-0.200387 -0.11606,-0.401121 -0.11606,-0.401121 z"
               id="path20653"
               sodipodi:nodetypes="sscccs" />
            <g
               id="g20659">
              <g
                 id="g20657">
                <path
                   style="fill:#a3e6ff;fill-opacity:1;stroke:none;stroke-width:0.264583px;stroke-linecap:butt;stroke-linejoin:miter;stroke-opacity:1"
                   d="m 511.72413,-63.286929 c 0.1621,-0.151317 0.53435,-0.239518 0.53435,-0.239518 0,0 -0.0782,0.210283 -0.21052,0.365351 -0.0832,0.09745 -0.43618,0.505022 -0.60319,0.672011 -0.16698,0.166989 -0.0489,-0.346134 -0.0155,-0.513123 0.096,-0.104485 0.15715,-0.231388 0.29487,-0.284721 z"
                   id="path20655"
                   sodipodi:nodetypes="ccsscc" />
              </g>
            </g>
          </g>
        </g>
        <g
           id="g20681"
           transform="matrix(1.043896,0.9667367,0.9667367,-1.043896,-110.72006,-311.19609)">
          <path
             sodipodi:nodetypes="ccscc"
             id="path20665"
             d="m 500.65619,-60.551058 -0.99187,-0.472317 c 0,0 0,-0.236159 0.33063,-0.377854 0.33059,-0.141695 0.87378,-0.212542 0.87378,-0.212542 z"
             style="fill:#00990b;fill-opacity:1;stroke:none;stroke-width:0.1;stroke-linecap:butt;stroke-linejoin:miter;stroke-miterlimit:4;stroke-dasharray:none;stroke-opacity:1" />
          <path
             sodipodi:nodetypes="ccsssssssssscc"
             id="path20667"
             d="m 502.23843,-51.954885 -0.0945,0.519548 c 0,0 0.14171,0.354236 0.33062,0.259771 0.18894,-0.09446 0.85019,-0.448702 1.0391,-0.63763 0.18894,-0.188926 0.89742,-0.802939 1.06273,-1.086329 0.16531,-0.28339 0.63762,-0.850171 0.80293,-1.157175 0.16531,-0.307007 0.42509,-0.897405 0.42509,-1.157178 0,-0.259774 -0.1181,-0.708475 -0.1181,-1.20441 0,-0.495933 0.28344,-1.086328 0.33063,-1.464182 0.0472,-0.377855 0.33062,-1.015482 0.37785,-1.322489 0.0473,-0.307006 0.14171,-0.236159 0,-0.614013 -0.14168,-0.377851 -0.59039,-0.543163 -0.70848,-0.519549 -0.11805,0.02363 -0.30699,0.330623 -0.35422,0.425087 -1.06934,2.64229 -2.03505,5.311939 -3.09369,7.958549 z"
             style="fill:#a3e6ff;fill-opacity:1;stroke:none;stroke-width:0.264583px;stroke-linecap:butt;stroke-linejoin:miter;stroke-opacity:1" />
          <path
             id="path20669"
             d="m 502.1912,-52.143813 c 0.0472,-0.212542 -0.51954,-2.007349 0.51956,-4.439782 1.0391,-2.432434 1.91289,-2.267122 2.31434,-2.881133 0.40148,-0.614013 0.37788,-0.04723 0.40148,0.28339 0.0235,0.330621 -0.33063,2.574129 -0.44871,2.999214 -0.11808,0.425085 -0.61399,2.456047 -0.89739,2.833901 -0.28339,0.377855 -1.10995,1.251641 -1.39335,1.464183 -0.28339,0.212543 -0.4487,0.35424 -0.49593,-0.259773 z"
             style="fill:#fffce0;fill-opacity:1;stroke:#000000;stroke-width:0.1;stroke-linecap:butt;stroke-linejoin:miter;stroke-miterlimit:4;stroke-dasharray:none;stroke-opacity:1" />
          <path
             sodipodi:nodetypes="csccscc"
             id="path20671"
             d="m 503.32478,-57.221222 c 0,0 -1.39335,-1.015482 -1.98374,-2.739441 -0.59039,-1.723956 -0.73209,-0.944632 -0.73209,-0.944632 l -10e-6,0.236158 c 0,0 0.23616,1.133562 0.77933,1.936501 0.54316,0.802939 1.62949,2.10181 1.62949,2.10181 0,0 0.25977,0.212543 0.30702,-0.590396 z"
             style="fill:#995200;fill-opacity:1;stroke:none;stroke-width:0.1;stroke-linecap:butt;stroke-linejoin:miter;stroke-miterlimit:4;stroke-dasharray:none;stroke-opacity:1" />
          <path
             sodipodi:nodetypes="cscsc"
             id="path20673"
             d="m 500.51449,-60.787218 c 0,0 0.61401,0.921019 1.81842,0.755708 1.20441,-0.165309 0.70847,-0.118078 0.70847,-0.118078 0,0 -0.30702,-0.708475 -1.06272,-0.802939 -0.7557,-0.09446 -1.46417,0.165309 -1.46417,0.165309 z"
             style="fill:#00990b;fill-opacity:1;stroke:none;stroke-width:0.1;stroke-linecap:butt;stroke-linejoin:miter;stroke-miterlimit:4;stroke-dasharray:none;stroke-opacity:1" />
          <path
             sodipodi:nodetypes="cscsscc"
             id="path20675"
             d="m 500.72701,-60.574672 c 0,0 0.43916,-0.367619 0.92103,-0.472319 0.51393,-0.111665 1.27527,0.141693 1.27527,0.141693 0,0 -0.40145,-0.377853 -0.7557,-0.543165 -0.35425,-0.165309 -0.77936,-0.141695 -1.06273,-0.04724 -0.28339,0.09446 -0.66125,0.684861 -0.66125,0.684861 z"
             style="fill:#00990b;fill-opacity:1;stroke:none;stroke-width:0.1;stroke-linecap:butt;stroke-linejoin:miter;stroke-miterlimit:4;stroke-dasharray:none;stroke-opacity:1" />
          <path
             id="path20677"
             d="m 500.65617,-60.739985 c 0,0 0.47233,0.354237 0.66124,0.755708 0.18894,0.401468 0.0709,1.180793 0.0709,1.180793 0,0 -0.80293,-0.212545 -1.10996,-0.802941 -0.30699,-0.590394 -0.14168,-0.826553 -0.0235,-1.015482 0.11808,-0.188925 0.40145,-0.118078 0.40145,-0.118078 z"
             style="fill:#00990b;fill-opacity:1;stroke:none;stroke-width:0.1;stroke-linecap:butt;stroke-linejoin:miter;stroke-miterlimit:4;stroke-dasharray:none;stroke-opacity:1" />
          <path
             sodipodi:nodetypes="csscccc"
             id="path20679"
             d="m 500.77425,-60.763601 c 0,0 -0.66123,0.09445 -0.73208,0.590395 -0.0709,0.495935 -0.0237,0.614013 0.0236,0.991866 0.0529,0.422443 0.21259,0.92102 0.21259,0.92102 -0.46348,-0.298686 -0.97964,-0.942021 -0.96827,-1.487798 0.0115,-0.402001 3e-5,-0.850172 0.66125,-1.109946 0.14376,0.04042 0.67041,0.0255 0.80286,0.09446 z"
             style="fill:#00990b;fill-opacity:1;stroke:none;stroke-width:0.1;stroke-linecap:butt;stroke-linejoin:miter;stroke-miterlimit:4;stroke-dasharray:none;stroke-opacity:1" />
        </g>
        <g
           id="g20699"
           transform="matrix(-0.81192396,-1.1683656,1.1683656,-0.81192396,887.33508,841.3519)">
          <path
             id="path20683"
             d="m 509.51476,-59.078407 c 0.19465,-0.389316 0.9733,-1.362599 1.16795,-1.946571 0.19465,-0.58397 0.19465,-1.167943 0.48665,-1.751912 0.29197,-0.583973 0.87595,-0.778629 1.3626,-0.875959 0.48662,-0.09733 0.97327,-0.09733 1.36258,-0.681299 0.38933,-0.58397 1.07064,-1.654583 1.16795,-2.335885 0.0973,-0.681299 0.58396,-1.459926 1.16795,-1.946569 0.58396,-0.486642 1.65457,-0.09733 2.43321,-0.681299"
             style="fill:#6ad6fe;fill-opacity:1;stroke:#000000;stroke-width:0.1;stroke-linecap:butt;stroke-linejoin:miter;stroke-miterlimit:4;stroke-dasharray:none;stroke-opacity:1" />
          <g
             id="g20697">
            <path
               style="fill:#6ad6fe;fill-opacity:1;stroke:#000000;stroke-width:0.1;stroke-linecap:butt;stroke-linejoin:miter;stroke-miterlimit:4;stroke-dasharray:none;stroke-opacity:1"
               d="m 512.42346,-61.385277 c 0.32935,-0.570439 0.45638,-2.846322 0.87476,-3.264715 0.41841,-0.418396 2.55204,-0.241163 3.15672,-0.845841"
               id="path20685" />
            <path
               style="fill:#a3e6ff;fill-opacity:1;stroke:none;stroke-width:0.264583px;stroke-linecap:butt;stroke-linejoin:miter;stroke-opacity:1"
               d="m 513.70103,-64.511191 c 0.26718,-0.06679 0.51936,-0.131986 0.66152,-0.212196 0.168,-0.09479 0.2183,-0.144934 0.0489,-0.162589 -0.32048,-0.0334 -0.93477,0.174747 -0.93477,0.174747 0,0 -0.4126,0.331953 -0.21221,0.365349 0.2004,0.0334 0.43656,-0.165311 0.43656,-0.165311 z"
               id="path20687"
               sodipodi:nodetypes="csscsc" />
            <path
               style="fill:#a3e6ff;fill-opacity:1;stroke:none;stroke-width:0.264583px;stroke-linecap:butt;stroke-linejoin:miter;stroke-opacity:1"
               d="m 516.03042,-68.332034 c 0.16697,-0.233804 0.40292,-0.377631 0.61869,-0.437877 0.40114,-0.112001 0.45747,-0.119757 0.22368,0.08063 -0.35602,0.185467 -0.50108,0.477318 -0.78534,0.841024 0.0334,-0.200387 -0.11606,-0.401121 -0.11606,-0.401121 z"
               id="path20689"
               sodipodi:nodetypes="sscccs" />
            <g
               id="g20695">
              <g
                 id="g20693">
                <path
                   style="fill:#a3e6ff;fill-opacity:1;stroke:none;stroke-width:0.264583px;stroke-linecap:butt;stroke-linejoin:miter;stroke-opacity:1"
                   d="m 511.72413,-63.286929 c 0.1621,-0.151317 0.53435,-0.239518 0.53435,-0.239518 0,0 -0.0782,0.210283 -0.21052,0.365351 -0.0832,0.09745 -0.43618,0.505022 -0.60319,0.672011 -0.16698,0.166989 -0.0489,-0.346134 -0.0155,-0.513123 0.096,-0.104485 0.15715,-0.231388 0.29487,-0.284721 z"
                   id="path20691"
                   sodipodi:nodetypes="ccsscc" />
              </g>
            </g>
          </g>
        </g>
        <g
           transform="matrix(0.08605521,-1.4201736,-1.4201736,-0.08605521,297.48051,1005.9468)"
           id="g20717">
          <path
             style="fill:#00990b;fill-opacity:1;stroke:none;stroke-width:0.1;stroke-linecap:butt;stroke-linejoin:miter;stroke-miterlimit:4;stroke-dasharray:none;stroke-opacity:1"
             d="m 500.65619,-60.551058 -0.99187,-0.472317 c 0,0 0,-0.236159 0.33063,-0.377854 0.33059,-0.141695 0.87378,-0.212542 0.87378,-0.212542 z"
             id="path20701"
             sodipodi:nodetypes="ccscc" />
          <path
             style="fill:#a3e6ff;fill-opacity:1;stroke:none;stroke-width:0.264583px;stroke-linecap:butt;stroke-linejoin:miter;stroke-opacity:1"
             d="m 502.23843,-51.954885 -0.0945,0.519548 c 0,0 0.14171,0.354236 0.33062,0.259771 0.18894,-0.09446 0.85019,-0.448702 1.0391,-0.63763 0.18894,-0.188926 0.89742,-0.802939 1.06273,-1.086329 0.16531,-0.28339 0.63762,-0.850171 0.80293,-1.157175 0.16531,-0.307007 0.42509,-0.897405 0.42509,-1.157178 0,-0.259774 -0.1181,-0.708475 -0.1181,-1.20441 0,-0.495933 0.28344,-1.086328 0.33063,-1.464182 0.0472,-0.377855 0.33062,-1.015482 0.37785,-1.322489 0.0473,-0.307006 0.14171,-0.236159 0,-0.614013 -0.14168,-0.377851 -0.59039,-0.543163 -0.70848,-0.519549 -0.11805,0.02363 -0.30699,0.330623 -0.35422,0.425087 -1.06934,2.64229 -2.03505,5.311939 -3.09369,7.958549 z"
             id="path20703"
             sodipodi:nodetypes="ccsssssssssscc" />
          <path
             style="fill:#fffce0;fill-opacity:1;stroke:#000000;stroke-width:0.1;stroke-linecap:butt;stroke-linejoin:miter;stroke-miterlimit:4;stroke-dasharray:none;stroke-opacity:1"
             d="m 502.1912,-52.143813 c 0.0472,-0.212542 -0.51954,-2.007349 0.51956,-4.439782 1.0391,-2.432434 1.91289,-2.267122 2.31434,-2.881133 0.40148,-0.614013 0.37788,-0.04723 0.40148,0.28339 0.0235,0.330621 -0.33063,2.574129 -0.44871,2.999214 -0.11808,0.425085 -0.61399,2.456047 -0.89739,2.833901 -0.28339,0.377855 -1.10995,1.251641 -1.39335,1.464183 -0.28339,0.212543 -0.4487,0.35424 -0.49593,-0.259773 z"
             id="path20705" />
          <path
             style="fill:#995200;fill-opacity:1;stroke:none;stroke-width:0.1;stroke-linecap:butt;stroke-linejoin:miter;stroke-miterlimit:4;stroke-dasharray:none;stroke-opacity:1"
             d="m 503.32478,-57.221222 c 0,0 -1.39335,-1.015482 -1.98374,-2.739441 -0.59039,-1.723956 -0.73209,-0.944632 -0.73209,-0.944632 l -10e-6,0.236158 c 0,0 0.23616,1.133562 0.77933,1.936501 0.54316,0.802939 1.62949,2.10181 1.62949,2.10181 0,0 0.25977,0.212543 0.30702,-0.590396 z"
             id="path20707"
             sodipodi:nodetypes="csccscc" />
          <path
             style="fill:#00990b;fill-opacity:1;stroke:none;stroke-width:0.1;stroke-linecap:butt;stroke-linejoin:miter;stroke-miterlimit:4;stroke-dasharray:none;stroke-opacity:1"
             d="m 500.51449,-60.787218 c 0,0 0.61401,0.921019 1.81842,0.755708 1.20441,-0.165309 0.70847,-0.118078 0.70847,-0.118078 0,0 -0.30702,-0.708475 -1.06272,-0.802939 -0.7557,-0.09446 -1.46417,0.165309 -1.46417,0.165309 z"
             id="path20709"
             sodipodi:nodetypes="cscsc" />
          <path
             style="fill:#00990b;fill-opacity:1;stroke:none;stroke-width:0.1;stroke-linecap:butt;stroke-linejoin:miter;stroke-miterlimit:4;stroke-dasharray:none;stroke-opacity:1"
             d="m 500.72701,-60.574672 c 0,0 0.43916,-0.367619 0.92103,-0.472319 0.51393,-0.111665 1.27527,0.141693 1.27527,0.141693 0,0 -0.40145,-0.377853 -0.7557,-0.543165 -0.35425,-0.165309 -0.77936,-0.141695 -1.06273,-0.04724 -0.28339,0.09446 -0.66125,0.684861 -0.66125,0.684861 z"
             id="path20711"
             sodipodi:nodetypes="cscsscc" />
          <path
             style="fill:#00990b;fill-opacity:1;stroke:none;stroke-width:0.1;stroke-linecap:butt;stroke-linejoin:miter;stroke-miterlimit:4;stroke-dasharray:none;stroke-opacity:1"
             d="m 500.65617,-60.739985 c 0,0 0.47233,0.354237 0.66124,0.755708 0.18894,0.401468 0.0709,1.180793 0.0709,1.180793 0,0 -0.80293,-0.212545 -1.10996,-0.802941 -0.30699,-0.590394 -0.14168,-0.826553 -0.0235,-1.015482 0.11808,-0.188925 0.40145,-0.118078 0.40145,-0.118078 z"
             id="path20713" />
          <path
             style="fill:#00990b;fill-opacity:1;stroke:none;stroke-width:0.1;stroke-linecap:butt;stroke-linejoin:miter;stroke-miterlimit:4;stroke-dasharray:none;stroke-opacity:1"
             d="m 500.77425,-60.763601 c 0,0 -0.66123,0.09445 -0.73208,0.590395 -0.0709,0.495935 -0.0237,0.614013 0.0236,0.991866 0.0529,0.422443 0.21259,0.92102 0.21259,0.92102 -0.46348,-0.298686 -0.97964,-0.942021 -0.96827,-1.487798 0.0115,-0.402001 3e-5,-0.850172 0.66125,-1.109946 0.14376,0.04042 0.67041,0.0255 0.80286,0.09446 z"
             id="path20715"
             sodipodi:nodetypes="csscccc" />
        </g>
        <g
           id="g20723"
           transform="matrix(0.99804143,-1.0140079,1.0140079,0.99804143,-79.117838,838.33547)">
          <path
             id="path20719"
             d="m 508.14853,-64.357688 c 0.13359,-0.267182 1.03534,-1.135526 1.16893,-1.536301 0.13359,-0.400775 -0.2004,-1.669894 0.16698,-2.504839 0.36737,-0.834949 0.86833,-1.035336 1.06873,-1.168927 0.2004,-0.133591 -0.1002,0.333978 -0.1002,0.500968 0,0.166989 -0.0334,0.701354 0.13359,0.801549 0.16701,0.100193 0.60119,0.100193 0.76817,-0.0334 0.16697,-0.133591 0.86833,-0.601162 1.00192,-0.734753 0.13361,-0.133591 0.93514,-0.701355 0.93514,-0.701355"
             style="fill:#6ad6fe;fill-opacity:1;stroke:#000000;stroke-width:0.1;stroke-linecap:butt;stroke-linejoin:miter;stroke-miterlimit:4;stroke-dasharray:none;stroke-opacity:1" />
          <path
             sodipodi:nodetypes="cssscc"
             id="path20721"
             d="m 510.55317,-69.514444 c 0,0 -0.58158,0.408876 -0.68178,0.575865 -0.1002,0.16699 -0.25741,0.768152 -0.15721,0.901743 0.1002,0.133593 0.27098,-0.568626 0.38693,-0.782332 0.11403,-0.210167 0.3657,-0.434171 0.3657,-0.434171 z"
             style="fill:#a3e6ff;fill-opacity:1;stroke:none;stroke-width:0.264583px;stroke-linecap:butt;stroke-linejoin:miter;stroke-opacity:1" />
        </g>
        <g
           transform="matrix(-1.1365754,-0.85585932,0.85585932,-1.1365754,1047.406,660.97301)"
           id="g20729">
          <path
             style="fill:#6ad6fe;fill-opacity:1;stroke:#000000;stroke-width:0.1;stroke-linecap:butt;stroke-linejoin:miter;stroke-miterlimit:4;stroke-dasharray:none;stroke-opacity:1"
             d="m 508.14853,-64.357688 c 0.13359,-0.267182 1.03534,-1.135526 1.16893,-1.536301 0.13359,-0.400775 -0.2004,-1.669894 0.16698,-2.504839 0.36737,-0.834949 0.86833,-1.035336 1.06873,-1.168927 0.2004,-0.133591 -0.1002,0.333978 -0.1002,0.500968 0,0.166989 -0.0334,0.701354 0.13359,0.801549 0.16701,0.100193 0.60119,0.100193 0.76817,-0.0334 0.16697,-0.133591 0.86833,-0.601162 1.00192,-0.734753 0.13361,-0.133591 0.93514,-0.701355 0.93514,-0.701355"
             id="path20725" />
          <path
             style="fill:#a3e6ff;fill-opacity:1;stroke:none;stroke-width:0.264583px;stroke-linecap:butt;stroke-linejoin:miter;stroke-opacity:1"
             d="m 510.55317,-69.514444 c 0,0 -0.58158,0.408876 -0.68178,0.575865 -0.1002,0.16699 -0.25741,0.768152 -0.15721,0.901743 0.1002,0.133593 0.27098,-0.568626 0.38693,-0.782332 0.11403,-0.210167 0.3657,-0.434171 0.3657,-0.434171 z"
             id="path20727"
             sodipodi:nodetypes="cssscc" />
        </g>
        <path
           d="m 1524.3867,674.22656 -245.4883,141.73242 v 283.46482 l 245.4883,141.7324 245.4883,-141.7324 V 815.95898 Z m 0,40.72071 207.6933,119.91015 v 239.82418 l -207.6933,119.9102 -207.6914,-119.9102 V 834.85742 Z"
           inkscape:transform-center-y="-7.7154899e-06"
           inkscape:transform-center-x="-8.5550826e-06"
           style="display:inline;opacity:1;fill:#1784ff;fill-opacity:1;stroke:none;stroke-width:4.85329;stroke-linecap:round;stroke-linejoin:miter;stroke-miterlimit:4;stroke-dasharray:none;stroke-opacity:1;paint-order:markers stroke fill"
           id="path20731"
           transform="scale(0.26458333)" />
        <rect
           y="218.38918"
           x="368.3273"
           height="70"
           width="70"
           id="rect20733"
           style="display:inline;fill:#ffffff;fill-opacity:1;fill-rule:evenodd;stroke:none;stroke-width:9.84872;stroke-linecap:square;stroke-linejoin:miter;stroke-miterlimit:4;stroke-dasharray:none;stroke-opacity:1" />
        <path
           inkscape:transform-center-y="-1.1415755e-05"
           inkscape:transform-center-x="-1.3618847e-05"
           inkscape:randomized="0"
           inkscape:rounded="0"
           inkscape:flatsided="true"
           sodipodi:arg2="1.0471976"
           sodipodi:arg1="0.52359878"
           sodipodi:r2="64.825691"
           sodipodi:r1="74.854263"
           sodipodi:cy="253.38911"
           sodipodi:cx="403.3273"
           sodipodi:sides="6"
           id="path20735"
           style="display:inline;opacity:0.369281;fill:none;fill-opacity:1;stroke:#000000;stroke-width:0.252429;stroke-linecap:round;stroke-linejoin:miter;stroke-miterlimit:4;stroke-dasharray:none;stroke-opacity:0.3;paint-order:markers stroke fill"
           sodipodi:type="star"
           d="m 468.15299,290.81625 -64.82569,37.42713 -64.82569,-37.42713 0,-74.85427 64.82569,-37.42713 64.82569,37.42713 z" />
        <g
           id="g20745"
           transform="matrix(0.7142857,0,0,0.7142857,379.40723,3.4935767)"
           style="display:inline;opacity:1">
          <rect
             y="314.85376"
             x="-1.511905"
             height="70"
             width="70"
             id="rect20737"
             style="opacity:1;fill:#000000;fill-opacity:1;stroke:none;stroke-width:0.263348;stroke-linecap:butt;stroke-linejoin:miter;stroke-miterlimit:4;stroke-dasharray:0.263348, 0.526696;stroke-dashoffset:0;stroke-opacity:1;paint-order:markers stroke fill" />
          <rect
             transform="rotate(90)"
             style="opacity:1;fill:#ffffff;fill-opacity:1;stroke:none;stroke-width:0.714562;stroke-linecap:butt;stroke-linejoin:miter;stroke-miterlimit:4;stroke-dasharray:0.714562, 1.42913;stroke-dashoffset:0;stroke-opacity:1;paint-order:markers stroke fill"
             id="rect20739"
             width="11.666667"
             height="46.667603"
             x="361.22943"
             y="-56.822136" />
          <rect
             transform="rotate(90)"
             y="-45.155235"
             x="326.22897"
             height="11.666667"
             width="23.333801"
             id="rect20741"
             style="opacity:1;fill:#ffffff;fill-opacity:1;stroke:none;stroke-width:0.505272;stroke-linecap:butt;stroke-linejoin:miter;stroke-miterlimit:4;stroke-dasharray:0.505272, 1.01054;stroke-dashoffset:0;stroke-opacity:1;paint-order:markers stroke fill" />
          <rect
             style="opacity:1;fill:#ffffff;fill-opacity:1;stroke:none;stroke-width:0.357281;stroke-linecap:butt;stroke-linejoin:miter;stroke-miterlimit:4;stroke-dasharray:0.357281, 0.71456;stroke-dashoffset:0;stroke-opacity:1;paint-order:markers stroke fill"
             id="rect20743"
             width="11.6669"
             height="11.666667"
             x="10.154535"
             y="337.89612" />
        </g>
      </g>
    </g>
  </g>
</svg>
